<?xml version="1.0" encoding="utf-8"?><svg xmlns="http://www.w3.org/2000/svg" xmlns:xlink="http://www.w3.org/1999/xlink"><symbol fill="none" viewBox="0 0 28 28" id="attention" xmlns="http://www.w3.org/2000/svg"><path fill="#FFDC36" d="M28 14c0 7.732-6.268 14-14 14S0 21.732 0 14 6.268 0 14 0s14 6.268 14 14z"/><path fill="#fff" d="M12.444 17.111h3.112v3.111h-3.111v-3.11zM12.444 6.222h3.112V14h-3.111V6.222z"/></symbol><symbol fill="currentColor" viewBox="0 0 14 14" id="cross" xmlns="http://www.w3.org/2000/svg"><path d="M7.773 7L13.84.934a.547.547 0 10-.774-.774L7 6.227.934.16A.547.547 0 10.16.934L6.227 7 .16 13.066a.547.547 0 10.774.774L7 7.773l6.066 6.067a.545.545 0 00.774 0 .547.547 0 000-.774L7.773 7z"/></symbol><symbol fill="currentColor" viewBox="0 0 11 9" id="mail" xmlns="http://www.w3.org/2000/svg"><path d="M10.033.047H.967a.956.956 0 00-.414.097L5.479 5.07l1.104-1.062L10.447.144a.956.956 0 00-.414-.097zM10.903.6L7.266 4.235l3.637 3.637A.956.956 0 0011 7.459V1.014a.955.955 0 00-.097-.415zM.097.6A.956.956 0 000 1.013v6.445c0 .149.037.288.097.414l3.637-3.637L.097.6z"/><path d="M6.81 4.692L5.708 5.753a.321.321 0 01-.456 0L4.19 4.692.553 8.329c.126.06.265.097.414.097h9.066a.956.956 0 00.415-.097L6.81 4.692z"/></symbol><symbol fill="currentColor" viewBox="0 0 10 10" id="phone" xmlns="http://www.w3.org/2000/svg"><path d="M9.198 6.564a5.677 5.677 0 01-1.783-.284c-.28-.095-.623-.008-.793.167l-1.125.849C4.194 6.6 3.39 5.796 2.704 4.503l.824-1.096a.808.808 0 00.198-.819A5.686 5.686 0 013.441.802.803.803 0 002.64 0H.802A.803.803 0 000 .802C0 5.874 4.126 10 9.198 10c.442 0 .802-.36.802-.802V7.366a.803.803 0 00-.802-.802z"/></symbol><symbol fill="currentColor" viewBox="0 0 15 15" id="search" xmlns="http://www.w3.org/2000/svg"><path d="M14.83 14.005l-3.662-3.661a6.283 6.283 0 001.459-4.03A6.32 6.32 0 006.313 0 6.32 6.32 0 000 6.313a6.32 6.32 0 006.313 6.314c1.531 0 2.936-.549 4.03-1.459l3.661 3.661a.581.581 0 00.825 0 .583.583 0 000-.825zM1.165 6.313a5.153 5.153 0 015.147-5.147 5.153 5.153 0 015.147 5.147 5.152 5.152 0 01-5.147 5.147 5.153 5.153 0 01-5.147-5.147z"/></symbol></svg>