<?xml version="1.0" encoding="utf-8"?><svg xmlns="http://www.w3.org/2000/svg" xmlns:xlink="http://www.w3.org/1999/xlink"><symbol fill="none" viewBox="0 0 28 28" id="attention" xmlns="http://www.w3.org/2000/svg"><path fill="#FFDC36" d="M28 14c0 7.732-6.268 14-14 14S0 21.732 0 14 6.268 0 14 0s14 6.268 14 14z"/><path fill="#fff" d="M12.444 17.111h3.112v3.111h-3.111v-3.11zM12.444 6.222h3.112V14h-3.111V6.222z"/></symbol><symbol fill="currentColor" viewBox="0 0 14 14" id="cross" xmlns="http://www.w3.org/2000/svg"><path d="M7.773 7L13.84.934a.547.547 0 10-.774-.774L7 6.227.934.16A.547.547 0 10.16.934L6.227 7 .16 13.066a.547.547 0 10.774.774L7 7.773l6.066 6.067a.545.545 0 00.774 0 .547.547 0 000-.774L7.773 7z"/></symbol><symbol fill="currentColor" viewBox="0 0 15 15" id="search" xmlns="http://www.w3.org/2000/svg"><path d="M14.83 14.005l-3.662-3.661a6.283 6.283 0 001.459-4.03A6.32 6.32 0 006.313 0 6.32 6.32 0 000 6.313a6.32 6.32 0 006.313 6.314c1.531 0 2.936-.549 4.03-1.459l3.661 3.661a.581.581 0 00.825 0 .583.583 0 000-.825zM1.165 6.313a5.153 5.153 0 015.147-5.147 5.153 5.153 0 015.147 5.147 5.152 5.152 0 01-5.147 5.147 5.153 5.153 0 01-5.147-5.147z"/></symbol></svg>