<svg width="18" height="18" viewBox="0 0 18 18" fill="none" xmlns="http://www.w3.org/2000/svg">
<path d="M0 2.81819C0 2.01528 0.651636 1.36365 1.45455 1.36365H16.5455C17.3484 1.36365 18 2.01528 18 2.81819C18 3.6211 17.3484 4.27274 16.5455 4.27274H1.45455C0.651636 4.27274 0 3.6211 0 2.81819ZM16.5455 7.54547H1.45455C0.651636 7.54547 0 8.1971 0 9.00001C0 9.80292 0.651636 10.4546 1.45455 10.4546H16.5455C17.3484 10.4546 18 9.80292 18 9.00001C18 8.1971 17.3491 7.54547 16.5455 7.54547ZM16.5455 13.7273H1.45455C0.651636 13.7273 0 14.3789 0 15.1818C0 15.9847 0.651636 16.6364 1.45455 16.6364H16.5455C17.3484 16.6364 18 15.9847 18 15.1818C18 14.3789 17.3491 13.7273 16.5455 13.7273Z" fill="#34A853"/>
</svg>
