<svg width="57" height="57" viewBox="0 0 57 57" fill="none" xmlns="http://www.w3.org/2000/svg">
<circle cx="28.5" cy="28.5" r="28.5" fill="#E8E8E8" fill-opacity="0.5"/>
<path d="M19 20.2798H18V21.2799H19V20.2798Z" fill="currentColor"/>
<path d="M43.9628 26.9673C43.9873 26.9073 43.9993 26.8437 43.9993 26.7798V21.2798C43.9993 19.3498 42.4288 17.7798 40.4994 17.7798H24.4995V18.7799H40.4994C41.8778 18.7799 42.9994 19.9013 42.9994 21.2799V26.6828L42.3313 28.3373C42.0868 28.9418 42.0868 29.6078 42.3308 30.2113L42.9698 31.8018L41.1304 37.7797H40.0899L40.9918 32.3613C41.0183 32.2023 40.9668 32.0403 40.8523 31.9258L38.2319 29.3054C37.7654 28.8398 37.4984 28.1944 37.4989 27.5344V26.7794H36.4989V27.5344C36.4983 28.4579 36.8723 29.3614 37.5254 30.0129L39.9634 32.4509L39.0059 38.1973C38.9819 38.3424 39.0229 38.4904 39.1179 38.6029C39.2128 38.7154 39.3524 38.7799 39.4994 38.7799H41.4993C41.7188 38.7799 41.9128 38.6368 41.9773 38.4274L43.9773 31.9275C44.0113 31.818 44.0063 31.7005 43.9633 31.5939L43.2578 29.838C43.1113 29.475 43.1113 29.076 43.2578 28.713L43.9628 26.9673Z" fill="currentColor"/>
<path d="M43 22.7798V23.7798C43 24.3313 42.5515 24.7798 42 24.7798C41.4484 24.7798 40.9999 24.3313 40.9999 23.7798V23.2798C40.9999 22.1768 40.1029 21.2798 39 21.2798H37.5V22.2799H39C39.5515 22.2799 40 22.7283 40 23.2799V23.7798C40 24.8829 40.897 25.7798 42 25.7798C43.1029 25.7798 44 24.8828 44 23.7798V22.7798H43Z" fill="currentColor"/>
<path d="M15.965 17.2799H14.5C14.224 17.2799 14 17.5039 14 17.7798C14 18.7233 14.1435 19.8828 15.2875 20.4978L15.7874 20.7328L16.2129 19.8269L15.7369 19.6044C15.3009 19.3699 15.0834 18.9824 15.0205 18.2799H15.9714C16.4194 18.2544 16.8324 18.4609 17.1229 18.7934L17.8764 18.1364C17.3925 17.5819 16.6735 17.2659 15.965 17.2799Z" fill="currentColor"/>
<path d="M27.8409 30.2798C27.1229 30.2743 26.4914 30.7618 26.3394 31.4728L25.0894 37.7798H23.9999V30.6343C23.9989 30.2903 23.8789 29.9543 23.663 29.6903L20.1285 25.3354C19.8425 24.9834 19.419 24.7809 18.965 24.7804H16.0815C15.487 24.7784 15.0015 24.2934 15 23.6999C15 23.5109 15.0485 23.3243 15.1424 23.1579L17.4179 19.0549C17.843 18.4089 18.636 18.0924 19.3419 18.2544L20.8419 18.7544C21.0029 18.8074 21.1799 18.7763 21.3129 18.6699C21.8599 18.2309 22.6014 18.1234 23.2604 18.3914L24.1369 18.7289C23.7189 19.5604 23.2824 19.7344 22.9669 19.7799H21.9999V20.7799H22.9999C23.0204 20.7799 23.0409 20.7789 23.0619 20.7769C24.0384 20.6564 24.7614 19.9544 25.2719 18.6309C25.3194 18.5069 25.3159 18.3694 25.2624 18.2479C25.2083 18.1269 25.1089 18.0319 24.9849 17.9844L23.6294 17.4629C22.7309 17.096 21.7159 17.1999 20.9149 17.7254L19.6135 17.2934C18.4535 17.0244 17.236 17.5119 16.563 18.5379L14.2695 22.6704C14.093 22.9839 14 23.3403 14 23.7019C14.0035 24.8444 14.936 25.7768 16.08 25.7799H18.964C19.115 25.7804 19.2565 25.8479 19.3514 25.9654L22.8874 30.3213C22.9599 30.4098 22.9999 30.5213 22.9999 30.6348V38.2797C22.9999 38.5562 23.2239 38.7797 23.4999 38.7797H25.4998C25.7389 38.7797 25.9439 38.6112 25.9903 38.3767L27.3188 31.6748C27.3688 31.4403 27.5798 31.2688 27.8298 31.2798H38.9997V30.2798H27.8409Z" fill="currentColor"/>
</svg>
