<svg width="30" height="30" viewBox="0 0 30 30" fill="currentColor" xmlns="http://www.w3.org/2000/svg">
<path d="M5.00001 7.27985H4V8.27986H5.00001V7.27985Z"/>
<path d="M29.9628 13.9673C29.9873 13.9073 29.9993 13.8437 29.9993 13.7798V8.27979C29.9993 6.34979 28.4288 4.77985 26.4994 4.77985H10.4995V5.77986H26.4994C27.8778 5.77986 28.9994 6.90133 28.9994 8.27985V13.6828L28.3313 15.3373C28.0868 15.9418 28.0868 16.6078 28.3308 17.2113L28.9698 18.8018L27.1304 24.7797H26.0899L26.9918 19.3613C27.0183 19.2023 26.9668 19.0403 26.8523 18.9258L24.2319 16.3054C23.7654 15.8398 23.4984 15.1944 23.4989 14.5344V13.7794H22.4989V14.5344C22.4983 15.4579 22.8723 16.3614 23.5254 17.0129L25.9634 19.4509L25.0059 25.1973C24.9819 25.3424 25.0229 25.4904 25.1179 25.6029C25.2128 25.7154 25.3524 25.7799 25.4994 25.7799H27.4993C27.7188 25.7799 27.9128 25.6368 27.9773 25.4274L29.9773 18.9275C30.0113 18.818 30.0063 18.7005 29.9633 18.5939L29.2578 16.838C29.1113 16.475 29.1113 16.076 29.2578 15.713L29.9628 13.9673Z"/>
<path d="M29 9.77977V10.7798C29 11.3313 28.5515 11.7798 28 11.7798C27.4484 11.7798 26.9999 11.3313 26.9999 10.7798V10.2798C26.9999 9.17679 26.1029 8.27985 25 8.27985H23.5V9.27986H25C25.5515 9.27986 26 9.72833 26 10.2799V10.7798C26 11.8829 26.897 12.7798 28 12.7798C29.1029 12.7798 30 11.8828 30 10.7798V9.77977H29Z"/>
<path d="M1.96498 4.27987H0.499976C0.224002 4.27987 0 4.50387 0 4.77984C0 5.72331 0.143495 6.88281 1.28747 7.4978L1.78744 7.73282L2.21295 6.82685L1.73694 6.60437C1.30094 6.36988 1.08345 5.98241 1.02046 5.27988H1.97143C2.41943 5.25439 2.83239 5.46087 3.1229 5.79339L3.87641 5.13638C3.39249 4.58185 2.67349 4.26586 1.96498 4.27987Z"/>
<path d="M13.8409 17.2798C13.1229 17.2743 12.4914 17.7618 12.3394 18.4728L11.0894 24.7798H9.99992V17.6343C9.99893 17.2903 9.87893 16.9543 9.66295 16.6903L6.12849 12.3354C5.8425 11.9834 5.41899 11.7809 4.96501 11.7804H2.08146C1.48698 11.7784 1.00147 11.2934 0.999951 10.6999C0.999951 10.5109 1.04847 10.3243 1.14245 10.1579L3.41792 6.0549C3.84295 5.40891 4.63595 5.09239 5.34194 5.2544L6.84193 5.75438C7.00294 5.8074 7.17995 5.77635 7.3129 5.66988C7.85986 5.2309 8.60136 5.12339 9.26036 5.39139L10.1369 5.72889C9.71885 6.56038 9.28239 6.7344 8.96687 6.77987H7.9999V7.77988H8.99991C9.02042 7.77988 9.04093 7.77889 9.0619 7.77689C10.0384 7.65637 10.7614 6.95442 11.2719 5.63092C11.3194 5.50694 11.3159 5.36942 11.2624 5.2479C11.2083 5.1269 11.1089 5.03192 10.9849 4.9844L9.62938 4.46292C8.73091 4.09595 7.7159 4.1999 6.91493 4.72542L5.61346 4.29341C4.45349 4.02441 3.23598 4.51191 2.56298 5.53787L0.26947 9.67039C0.0929874 9.98387 0 10.3403 0 10.7019C0.00351559 11.8444 0.935967 12.7768 2.08 12.7799H4.96396C5.11495 12.7804 5.25645 12.8479 5.35143 12.9654L8.88741 17.3213C8.95989 17.4098 8.99991 17.5213 8.99991 17.6348V25.2797C8.99991 25.5562 9.22391 25.7797 9.49989 25.7797H11.4998C11.7389 25.7797 11.9439 25.6112 11.9903 25.3767L13.3188 18.6748C13.3688 18.4403 13.5798 18.2688 13.8298 18.2798H24.9997V17.2798H13.8409Z"/>
</svg>
