<svg width="30" height="30" viewBox="0 0 30 30" fill="currentColor" xmlns="http://www.w3.org/2000/svg">
<path d="M4.375 27.5H0.625C0.28 27.5 0 27.22 0 26.875V15.625C0 15.28 0.28 15 0.625 15C4.87625 15 7.1225 16.4325 7.21625 16.4937C7.44 16.64 7.54625 16.9125 7.48125 17.1713L4.98125 27.0287C4.91 27.3062 4.66125 27.5 4.375 27.5ZM1.25 26.25H3.88875L6.15 17.3375C5.44625 17.0012 3.78875 16.355 1.25 16.2612V26.25Z"/>
<path d="M16.2503 30C13.3003 30 7.59658 27.52 4.45783 26.04C4.14533 25.8938 4.01283 25.52 4.15908 25.2088C4.30533 24.895 4.67908 24.7638 4.99158 24.91C7.44158 26.065 13.4416 28.75 16.2503 28.75C19.2903 28.75 26.4566 25.1788 28.5178 24.1175C28.1928 23.6925 27.5216 23.125 26.2503 23.125C25.0966 23.125 23.6341 23.5863 22.2191 24.0338C20.7153 24.5075 19.1591 25 17.8128 25C15.2328 25 11.8066 23.765 11.6616 23.7125C11.3378 23.595 11.1703 23.2363 11.2878 22.9113C11.4066 22.5875 11.7641 22.4213 12.0891 22.5375C12.1216 22.55 15.4541 23.75 17.8128 23.75C18.9666 23.75 20.4291 23.2888 21.8441 22.8413C23.3478 22.3675 24.9041 21.875 26.2503 21.875C29.1666 21.875 29.9366 24.0838 29.9678 24.1775C30.0641 24.4663 29.9391 24.7825 29.6691 24.9275C29.2803 25.1325 20.1116 30 16.2503 30Z"/>
<path d="M20.6249 24.4874C20.2799 24.4874 19.9999 24.2074 19.9999 23.8624V23.2374C19.9999 22.3649 19.4124 21.6175 18.5699 21.4225L6.50238 18.5087C6.16613 18.4274 5.95988 18.0899 6.04113 17.7537C6.12238 17.4162 6.46613 17.2174 6.79488 17.2924L18.8574 20.2049C20.2649 20.5337 21.2499 21.7812 21.2499 23.2374V23.8624C21.2499 24.2074 20.9699 24.4874 20.6249 24.4874Z"/>
<path d="M18.125 15C17.78 15 17.5 14.72 17.5 14.375V5.625C17.5 5.28 17.78 5 18.125 5C18.47 5 18.75 5.28 18.75 5.625V14.375C18.75 14.72 18.47 15 18.125 15Z"/>
<path d="M20.625 6.25H18.125C17.78 6.25 17.5 5.97 17.5 5.625V4.375C17.5 1.9625 19.4625 0 21.875 0H24.375C24.72 0 25 0.28 25 0.625V1.875C25 4.2875 23.0375 6.25 20.625 6.25ZM18.75 5H20.625C22.3475 5 23.75 3.59875 23.75 1.875V1.25H21.875C20.1525 1.25 18.75 2.65125 18.75 4.375V5Z"/>
<path d="M18.125 11.25H15.625C12.5238 11.25 10 8.72625 10 5.625V4.375C10 4.03 10.28 3.75 10.625 3.75H13.125C16.2262 3.75 18.75 6.27375 18.75 9.375V10.625C18.75 10.97 18.47 11.25 18.125 11.25ZM11.25 5V5.625C11.25 8.0375 13.2125 10 15.625 10H17.5V9.375C17.5 6.9625 15.5375 5 13.125 5H11.25Z"/>
</svg>
