<svg width="57" height="57" viewBox="0 0 57 57" fill="none" xmlns="http://www.w3.org/2000/svg">
<circle cx="28.5" cy="28.5" r="28.5" fill="#E8E8E8" fill-opacity="0.5"/>
<path d="M18.375 40.5H14.625C14.28 40.5 14 40.22 14 39.875V28.625C14 28.28 14.28 28 14.625 28C18.8763 28 21.1225 29.4325 21.2162 29.4937C21.44 29.64 21.5463 29.9125 21.4813 30.1713L18.9812 40.0287C18.91 40.3062 18.6613 40.5 18.375 40.5ZM15.25 39.25H17.8888L20.15 30.3375C19.4462 30.0012 17.7887 29.355 15.25 29.2612V39.25Z" fill="currentColor"/>
<path d="M30.2503 43C27.3003 43 21.5966 40.52 18.4578 39.04C18.1453 38.8938 18.0128 38.52 18.1591 38.2088C18.3053 37.895 18.6791 37.7638 18.9916 37.91C21.4416 39.065 27.4416 41.75 30.2503 41.75C33.2903 41.75 40.4566 38.1788 42.5178 37.1175C42.1928 36.6925 41.5216 36.125 40.2503 36.125C39.0966 36.125 37.6341 36.5863 36.2191 37.0338C34.7153 37.5075 33.1591 38 31.8128 38C29.2328 38 25.8066 36.765 25.6616 36.7125C25.3378 36.595 25.1703 36.2363 25.2878 35.9113C25.4066 35.5875 25.7641 35.4213 26.0891 35.5375C26.1216 35.55 29.4541 36.75 31.8128 36.75C32.9666 36.75 34.4291 36.2888 35.8441 35.8413C37.3478 35.3675 38.9041 34.875 40.2503 34.875C43.1666 34.875 43.9366 37.0838 43.9678 37.1775C44.0641 37.4663 43.9391 37.7825 43.6691 37.9275C43.2803 38.1325 34.1116 43 30.2503 43Z" fill="currentColor"/>
<path d="M34.6249 37.4874C34.2799 37.4874 33.9999 37.2074 33.9999 36.8624V36.2374C33.9999 35.3649 33.4124 34.6175 32.5699 34.4225L20.5024 31.5087C20.1661 31.4274 19.9599 31.0899 20.0411 30.7537C20.1224 30.4162 20.4661 30.2174 20.7949 30.2924L32.8574 33.2049C34.2649 33.5337 35.2499 34.7812 35.2499 36.2374V36.8624C35.2499 37.2074 34.9699 37.4874 34.6249 37.4874Z" fill="currentColor"/>
<path d="M32.125 28C31.78 28 31.5 27.72 31.5 27.375V18.625C31.5 18.28 31.78 18 32.125 18C32.47 18 32.75 18.28 32.75 18.625V27.375C32.75 27.72 32.47 28 32.125 28Z" fill="currentColor"/>
<path d="M34.625 19.25H32.125C31.78 19.25 31.5 18.97 31.5 18.625V17.375C31.5 14.9625 33.4625 13 35.875 13H38.375C38.72 13 39 13.28 39 13.625V14.875C39 17.2875 37.0375 19.25 34.625 19.25ZM32.75 18H34.625C36.3475 18 37.75 16.5988 37.75 14.875V14.25H35.875C34.1525 14.25 32.75 15.6513 32.75 17.375V18Z" fill="currentColor"/>
<path d="M32.125 24.25H29.625C26.5238 24.25 24 21.7262 24 18.625V17.375C24 17.03 24.28 16.75 24.625 16.75H27.125C30.2262 16.75 32.75 19.2738 32.75 22.375V23.625C32.75 23.97 32.47 24.25 32.125 24.25ZM25.25 18V18.625C25.25 21.0375 27.2125 23 29.625 23H31.5V22.375C31.5 19.9625 29.5375 18 27.125 18H25.25Z" fill="currentColor"/>
</svg>
