<svg width="11" height="9" viewBox="0 0 11 9" fill="currentColor" xmlns="http://www.w3.org/2000/svg">
<path d="M10.0331 0.046814H0.966922C0.818103 0.046814 0.67878 0.083401 0.552734 0.143706L5.47853 5.06951L6.58257 4.00848C6.58257 4.00848 6.58266 4.00838 6.58268 4.00833C6.5827 4.00829 6.58278 4.00825 6.58278 4.00825L10.4475 0.143792C10.3214 0.083444 10.182 0.046814 10.0331 0.046814Z"/>
<path d="M10.9032 0.599487L7.26636 4.23615L10.9031 7.87287C10.9634 7.74683 11 7.6075 11 7.45869V1.01352C11 0.864792 10.9635 0.72549 10.9032 0.599487Z"/>
<path d="M0.0968923 0.599487C0.036587 0.725533 0 0.864856 0 1.01367V7.45884C0 7.60757 0.0365441 7.74691 0.0968063 7.87292L3.73366 4.23626L0.0968923 0.599487Z"/>
<path d="M6.81073 4.69194L5.70654 5.75309C5.64359 5.81604 5.56114 5.84751 5.47871 5.84751C5.39627 5.84751 5.3138 5.81604 5.25087 5.75309L4.18965 4.69189L0.552734 8.32858C0.678802 8.38893 0.818211 8.42556 0.967072 8.42556H10.0333C10.1821 8.42556 10.3214 8.38897 10.4475 8.32866L6.81073 4.69194Z"/>
</svg>
