<svg width="25" height="25" viewBox="0 0 25 25" fill="currentColor" xmlns="http://www.w3.org/2000/svg">
<path d="M23.8525 12.3047H21.4111V11.2109C21.4111 9.86909 20.4747 8.7397 19.2139 8.42647V0.732422C19.2139 0.32793 18.8859 0 18.4814 0H1.14746C0.742969 0 0.415039 0.32793 0.415039 0.732422V20.8008C0.415039 21.2053 0.742969 21.5332 1.14746 21.5332H12.4268V22.1334C12.4268 23.7141 13.7147 25 15.2979 25H21.7139C23.297 25 24.585 23.7141 24.585 22.1334V13.0372C24.585 12.6327 24.257 12.3047 23.8525 12.3047ZM19.9463 11.2109V12.3047H17.0654V11.2109C17.0654 10.4355 17.7116 9.80469 18.5059 9.80469C19.3001 9.80469 19.9463 10.4355 19.9463 11.2109ZM1.87988 20.0684V1.46484H17.749V8.43926C16.5129 8.76924 15.6006 9.88647 15.6006 11.2109V12.3047H13.1592C12.7547 12.3047 12.4268 12.6326 12.4268 13.0371V20.0684H1.87988ZM23.1201 22.1334C23.1201 22.9063 22.4893 23.5352 21.7139 23.5352H15.2979C14.5225 23.5352 13.8916 22.9063 13.8916 22.1334V13.7696H15.6006V15.6982C15.6006 16.1027 15.9285 16.4307 16.333 16.4307C16.7375 16.4307 17.0654 16.1027 17.0654 15.6982V13.7696H19.9463V15.6982C19.9463 16.1027 20.2742 16.4307 20.6787 16.4307C21.0832 16.4307 21.4111 16.1027 21.4111 15.6982V13.7696H23.1201V22.1334Z"/>
<path d="M5.53623 3.16302L4.70381 4.05721L4.64809 3.98792C4.39468 3.67264 3.93364 3.62239 3.61836 3.87586C3.30307 4.12923 3.25288 4.59027 3.50625 4.90555L4.09218 5.6346C4.22544 5.80033 4.42402 5.90003 4.63647 5.90775C4.64541 5.90804 4.65425 5.90824 4.66313 5.90824C4.86601 5.90824 5.06035 5.82396 5.19917 5.67489L6.6083 4.16121C6.88399 3.86517 6.86739 3.40169 6.57129 3.12606C6.27539 2.85042 5.81187 2.86697 5.53623 3.16302Z"/>
<path d="M9.00879 5.15137H15.5517C15.9562 5.15137 16.2841 4.82344 16.2841 4.41895C16.2841 4.01445 15.9562 3.68652 15.5517 3.68652H9.00879C8.6043 3.68652 8.27637 4.01445 8.27637 4.41895C8.27637 4.82344 8.6043 5.15137 9.00879 5.15137Z"/>
<path d="M5.53623 7.60638L4.70381 8.50057L4.64809 8.43128C4.39468 8.116 3.93364 8.0658 3.61836 8.31922C3.30307 8.57264 3.25288 9.03362 3.50625 9.34891L4.09218 10.078C4.22544 10.2437 4.42402 10.3434 4.63647 10.3511C4.64541 10.3514 4.65425 10.3516 4.66313 10.3516C4.86601 10.3516 5.06035 10.2673 5.19917 10.1182L6.6083 8.60457C6.88399 8.30853 6.86739 7.84505 6.57129 7.56941C6.27539 7.29378 5.81187 7.31033 5.53623 7.60638Z"/>
<path d="M9.00879 9.59473H13.1103C13.5147 9.59473 13.8427 9.2668 13.8427 8.8623C13.8427 8.45781 13.5147 8.12988 13.1103 8.12988H9.00879C8.6043 8.12988 8.27637 8.45781 8.27637 8.8623C8.27637 9.2668 8.6043 9.59473 9.00879 9.59473Z"/>
<path d="M5.53623 12.0497L4.70381 12.9439L4.64809 12.8746C4.39468 12.5593 3.93364 12.5092 3.61836 12.7626C3.30307 13.0159 3.25288 13.477 3.50625 13.7923L4.09218 14.5213C4.22544 14.687 4.42402 14.7867 4.63647 14.7945C4.64541 14.7948 4.65425 14.795 4.66313 14.795C4.86601 14.795 5.06035 14.7107 5.19917 14.5616L6.6083 13.0479C6.88399 12.7519 6.86739 12.2884 6.57129 12.0128C6.27539 11.7371 5.81187 11.7537 5.53623 12.0497Z"/>
<path d="M10.2293 12.5732H9.00879C8.6043 12.5732 8.27637 12.9012 8.27637 13.3057C8.27637 13.7102 8.6043 14.0381 9.00879 14.0381H10.2293C10.6338 14.0381 10.9618 13.7102 10.9618 13.3057C10.9618 12.9012 10.6338 12.5732 10.2293 12.5732Z"/>
</svg>
