<svg width="30" height="30" viewBox="0 0 30 30" fill="currentColor" xmlns="http://www.w3.org/2000/svg">
<path d="M18.5156 15.2344C18.1922 15.2344 17.9297 15.4969 17.9297 15.8203C17.9297 16.1437 18.1922 16.4062 18.5156 16.4062C18.839 16.4062 19.1016 16.1437 19.1016 15.8203C19.1016 15.4969 18.839 15.2344 18.5156 15.2344Z"/>
<path d="M5.98856 21.6671L0.129188 29.0499C-0.0106585 29.2259 -0.0372088 29.4665 0.0605237 29.6688C0.158256 29.8714 0.363334 30 0.588096 30H29.4162C29.641 30 29.8461 29.8714 29.9438 29.6688C30.0418 29.4665 30.015 29.2259 29.8751 29.0499L24.0158 21.6671C23.9047 21.527 23.7356 21.4453 23.5568 21.4453H18.4242L22.8061 14.5724C23.834 13.0314 24.3772 11.2342 24.3772 9.375C24.3772 4.2057 20.1717 0 15.0022 0C9.83263 0 5.62716 4.2057 5.62716 9.375C5.62716 11.2342 6.1703 13.0312 7.1982 14.5724L11.5801 21.4453H6.44747C6.26871 21.4453 6.0998 21.527 5.98856 21.6671ZM3.80091 26.3086H7.34377L5.34426 28.8281H1.80117L3.80091 26.3086ZM12.3274 22.6172L13.9337 25.1367H9.76992L11.7697 22.6172H12.3274ZM17.6771 22.6172H18.2349L20.2344 25.1367H16.0708L17.6771 22.6172ZM21.1646 26.3086L23.1641 28.8281H6.84023L8.83997 26.3086H21.1646ZM24.6603 28.8281L22.6605 26.3086H26.2036L28.2031 28.8281H24.6603ZM25.2735 25.1367H21.7306L19.7309 22.6172H23.274L25.2735 25.1367ZM8.17645 13.927C7.27534 12.578 6.79903 11.004 6.79903 9.375C6.79903 4.85184 10.479 1.17188 15.0022 1.17188C19.5253 1.17188 23.2053 4.85184 23.2053 9.375C23.2053 11.004 22.729 12.578 21.8281 13.927C21.8256 13.9304 21.8235 13.9339 21.8212 13.9373C21.4365 14.5409 15.2986 24.1681 15.0022 24.6327C14.2567 23.4634 8.94228 15.1279 8.18308 13.9373C8.18102 13.9339 8.17873 13.9304 8.17645 13.927ZM10.2735 22.6172L8.27395 25.1367H4.73086L6.7306 22.6172H10.2735Z"/>
<path d="M15 15.2344C18.2167 15.2344 20.8594 12.6295 20.8594 9.375C20.8594 6.1441 18.2309 3.51562 15 3.51562C11.7691 3.51562 9.14062 6.1441 9.14062 9.375C9.14062 12.6304 11.7842 15.2344 15 15.2344ZM15 4.6875C17.5848 4.6875 19.6875 6.79024 19.6875 9.375C19.6875 11.9838 17.5678 14.0625 15 14.0625C12.4315 14.0625 10.3125 11.9838 10.3125 9.375C10.3125 6.79024 12.4152 4.6875 15 4.6875Z"/>
<path d="M17.4683 17.2339C17.1913 17.0668 16.831 17.1561 16.664 17.4332L14.4983 21.0262C14.3312 21.3034 14.4205 21.6634 14.6976 21.8305C14.976 21.9983 15.3355 21.9072 15.5019 21.6312L17.6676 18.0382C17.8347 17.761 17.7454 17.401 17.4683 17.2339Z"/>
</svg>
