<svg width="57" height="57" viewBox="0 0 57 57" fill="none" xmlns="http://www.w3.org/2000/svg">
<circle cx="28.5" cy="28.5" r="28.5" fill="#E8E8E8" fill-opacity="0.5"/>
<path d="M32.5156 28.2344C32.1922 28.2344 31.9297 28.4969 31.9297 28.8203C31.9297 29.1437 32.1922 29.4062 32.5156 29.4062C32.839 29.4062 33.1016 29.1437 33.1016 28.8203C33.1016 28.4969 32.839 28.2344 32.5156 28.2344Z" fill="currentColor"/>
<path d="M19.9886 34.6671L14.1292 42.0499C13.9893 42.2259 13.9628 42.4665 14.0605 42.6688C14.1583 42.8714 14.3633 43 14.5881 43H43.4162C43.641 43 43.8461 42.8714 43.9438 42.6688C44.0418 42.4665 44.015 42.2259 43.8751 42.0499L38.0158 34.6671C37.9047 34.527 37.7356 34.4453 37.5568 34.4453H32.4242L36.8061 27.5724C37.834 26.0314 38.3772 24.2342 38.3772 22.375C38.3772 17.2057 34.1717 13 29.0022 13C23.8326 13 19.6272 17.2057 19.6272 22.375C19.6272 24.2342 20.1703 26.0312 21.1982 27.5724L25.5801 34.4453H20.4475C20.2687 34.4453 20.0998 34.527 19.9886 34.6671ZM17.8009 39.3086H21.3438L19.3443 41.8281H15.8012L17.8009 39.3086ZM26.3274 35.6172L27.9337 38.1367H23.7699L25.7697 35.6172H26.3274ZM31.6771 35.6172H32.2349L34.2344 38.1367H30.0708L31.6771 35.6172ZM35.1646 39.3086L37.1641 41.8281H20.8402L22.84 39.3086H35.1646ZM38.6603 41.8281L36.6605 39.3086H40.2036L42.2031 41.8281H38.6603ZM39.2735 38.1367H35.7306L33.7309 35.6172H37.274L39.2735 38.1367ZM22.1764 26.927C21.2753 25.578 20.799 24.004 20.799 22.375C20.799 17.8518 24.479 14.1719 29.0022 14.1719C33.5253 14.1719 37.2053 17.8518 37.2053 22.375C37.2053 24.004 36.729 25.578 35.8281 26.927C35.8256 26.9304 35.8235 26.9339 35.8212 26.9373C35.4365 27.5409 29.2986 37.1681 29.0022 37.6327C28.2567 36.4634 22.9423 28.1279 22.1831 26.9373C22.181 26.9339 22.1787 26.9304 22.1764 26.927ZM24.2735 35.6172L22.2739 38.1367H18.7309L20.7306 35.6172H24.2735Z" fill="currentColor"/>
<path d="M29 28.2344C32.2167 28.2344 34.8594 25.6295 34.8594 22.375C34.8594 19.1441 32.2309 16.5156 29 16.5156C25.7691 16.5156 23.1406 19.1441 23.1406 22.375C23.1406 25.6304 25.7842 28.2344 29 28.2344ZM29 17.6875C31.5848 17.6875 33.6875 19.7902 33.6875 22.375C33.6875 24.9838 31.5678 27.0625 29 27.0625C26.4315 27.0625 24.3125 24.9838 24.3125 22.375C24.3125 19.7902 26.4152 17.6875 29 17.6875Z" fill="currentColor"/>
<path d="M31.4683 30.2339C31.1913 30.0668 30.831 30.1561 30.664 30.4332L28.4983 34.0262C28.3312 34.3034 28.4205 34.6634 28.6976 34.8305C28.976 34.9983 29.3355 34.9072 29.5019 34.6312L31.6676 31.0382C31.8347 30.761 31.7454 30.401 31.4683 30.2339Z" fill="currentColor"/>
</svg>
