<svg width="30" height="30" viewBox="0 0 30 30" fill="currentColor" xmlns="http://www.w3.org/2000/svg">
<path d="M28.2519 7.87061L29.0323 5.78906C29.0685 5.69243 29.0719 5.58654 29.0418 5.48783C29.0117 5.38912 28.9498 5.3031 28.8659 5.24311C28.7819 5.18312 28.6805 5.15252 28.5773 5.15605C28.4742 5.15959 28.3751 5.19706 28.2954 5.26266L20.7838 11.4492C20.5787 11.6188 20.4259 11.8431 20.3431 12.0961C20.2603 12.3491 20.2509 12.6203 20.316 12.8784C20.3581 13.0435 20.4051 13.226 20.4507 13.4004C20.4848 13.5319 20.477 13.6708 20.4284 13.7977C20.3799 13.9246 20.2929 14.0332 20.1797 14.1083L20.1612 14.1206C20.0412 14.2007 19.8976 14.2379 19.7537 14.2262C19.6099 14.2145 19.4742 14.1546 19.3686 14.0562L18.2525 12.4677L17.9844 11.127C17.9383 10.9 17.9377 10.6661 17.9827 10.4389C18.0276 10.2117 18.1172 9.99568 18.2461 9.80332C18.4641 9.47758 18.7839 9.2333 19.1555 9.10875C19.3126 9.0559 19.4786 9.03474 19.6438 9.04648C19.8091 9.05823 19.9705 9.10266 20.1185 9.17719L21.3526 9.79418C21.4327 9.83425 21.5227 9.8505 21.6118 9.84099C21.701 9.83148 21.7855 9.79661 21.8554 9.74053C21.9253 9.68444 21.9777 9.60948 22.0063 9.52454C22.035 9.4396 22.0386 9.34823 22.0169 9.26127L21.7162 8.05822C21.6184 7.66697 21.4029 7.31511 21.099 7.05006L21.4734 5.18713C21.5178 4.96261 21.4789 4.72959 21.364 4.53167C21.249 4.33376 21.0659 4.1845 20.8489 4.11182L20.2208 3.90088L20.2149 3.89895C20.1955 3.89273 20.1757 3.88811 20.1563 3.8826V3.28125C20.1563 3.15693 20.1069 3.0377 20.019 2.94979C19.9311 2.86189 19.8119 2.8125 19.6876 2.8125C19.5632 2.8125 19.444 2.86189 19.3561 2.94979C19.2682 3.0377 19.2188 3.15693 19.2188 3.28125V3.88236C19.1992 3.88787 19.1794 3.8925 19.1602 3.89871L19.1543 3.90064L18.5274 4.11129C18.3101 4.18389 18.1267 4.33321 18.0116 4.53129C17.8965 4.72937 17.8575 4.96262 17.902 5.18736L18.2036 6.68801C17.9692 6.74472 17.7398 6.82052 17.5177 6.91465L16.9241 6.02402L17.5095 4.26762C17.6226 3.92735 17.6016 3.55676 17.4507 3.23147C17.2999 2.90618 17.0305 2.65073 16.6977 2.51725L15.4694 2.02594V1.40625C15.4694 1.28193 15.42 1.1627 15.3321 1.07479C15.2442 0.986886 15.125 0.9375 15.0006 0.9375C14.8763 0.9375 14.7571 0.986886 14.6692 1.07479C14.5813 1.1627 14.5319 1.28193 14.5319 1.40625V2.02611L13.3025 2.51742C12.9698 2.65094 12.7005 2.90639 12.5496 3.23167C12.3988 3.55694 12.3777 3.92752 12.4907 4.26779L13.0762 6.0242L12.4826 6.91482C12.2605 6.82068 12.0311 6.74488 11.7967 6.68818L12.0984 5.18713C12.1428 4.96257 12.104 4.72949 11.989 4.53153C11.8741 4.33356 11.6909 4.18426 11.4738 4.11158L10.8457 3.90064L10.8398 3.89871C10.8204 3.89244 10.8006 3.88787 10.7812 3.88236V3.28125C10.7812 3.15693 10.7319 3.0377 10.6439 2.94979C10.556 2.86189 10.4368 2.8125 10.3125 2.8125C10.1882 2.8125 10.0689 2.86189 9.98104 2.94979C9.89313 3.0377 9.84374 3.15693 9.84374 3.28125V3.88236C9.82411 3.88787 9.80431 3.8925 9.78515 3.89871L9.77929 3.90064L9.15234 4.11129C8.93503 4.18387 8.75163 4.33319 8.63651 4.53127C8.52139 4.72936 8.48244 4.96262 8.52696 5.18736L8.9012 7.04982C8.59726 7.31488 8.38188 7.66674 8.28409 8.05799L7.98327 9.26103C7.96154 9.348 7.9652 9.43938 7.99382 9.52433C8.02244 9.60929 8.07482 9.68425 8.14474 9.74034C8.21467 9.79643 8.29922 9.83129 8.38836 9.84079C8.47749 9.85029 8.56749 9.83403 8.64767 9.79395L9.88177 9.17695C10.0298 9.10244 10.1911 9.05802 10.3564 9.04628C10.5217 9.03453 10.6876 9.05568 10.8447 9.10852C11.2163 9.23306 11.5361 9.47736 11.754 9.80314C11.883 9.99549 11.9726 10.2115 12.0175 10.4387C12.0625 10.6659 12.0619 10.8997 12.0159 11.1267L11.7478 12.4672L10.6316 14.0557C10.526 14.1542 10.3903 14.2142 10.2464 14.2259C10.1024 14.2376 9.95879 14.2003 9.8387 14.1202L9.82054 14.1081C9.70734 14.033 9.62038 13.9244 9.57179 13.7975C9.52319 13.6706 9.51538 13.5317 9.54943 13.4002C9.59513 13.2258 9.64206 13.0433 9.68419 12.8783C9.74932 12.6202 9.73993 12.3489 9.65712 12.0959C9.5743 11.8429 9.42146 11.6186 9.21632 11.449L1.70384 5.26289C1.62419 5.19727 1.52511 5.15976 1.42197 5.15619C1.31883 5.15262 1.2174 5.18319 1.13341 5.24315C1.04941 5.30311 0.987555 5.38912 0.957429 5.48782C0.927303 5.58653 0.930592 5.69242 0.966788 5.78906L1.74726 7.87037C2.18645 9.03985 2.92165 10.0753 3.88095 10.8755L4.0961 11.0548L1.93259 10.7844C1.84348 10.7732 1.75305 10.7879 1.67205 10.8267C1.59105 10.8654 1.52289 10.9267 1.47568 11.003C1.42847 11.0794 1.40419 11.1678 1.40574 11.2576C1.40729 11.3473 1.43459 11.4348 1.4844 11.5095C2.14676 12.5072 3.10774 13.2698 4.22982 13.6881L4.56192 13.8126L2.29142 14.0648C2.19394 14.0757 2.10232 14.1168 2.02945 14.1825C1.95658 14.2481 1.90615 14.335 1.88524 14.4308C1.86433 14.5266 1.874 14.6266 1.91289 14.7166C1.95179 14.8066 2.01794 14.8822 2.10204 14.9327L2.92382 15.426C3.90748 16.0173 4.98762 16.4307 6.11472 16.6472C5.39712 17.1402 4.78017 17.7655 4.29696 18.4897C4.24982 18.5603 4.22275 18.6424 4.21862 18.7272C4.21449 18.812 4.23347 18.8963 4.27353 18.9712C4.31359 19.046 4.37323 19.1086 4.44608 19.1522C4.51892 19.1958 4.60224 19.2188 4.68714 19.2188H4.872C5.78192 19.2196 6.68023 19.0145 7.49964 18.6189V19.6875C7.49966 19.7802 7.52716 19.8708 7.57867 19.9479C7.63018 20.0249 7.70338 20.085 7.78902 20.1205C7.87466 20.1559 7.9689 20.1652 8.05981 20.1471C8.15073 20.1291 8.23424 20.0844 8.2998 20.0189L9.37464 18.9441L9.98068 19.5502C10.0297 19.5992 10.089 19.6367 10.1543 19.6601C10.2196 19.6834 10.2893 19.692 10.3583 19.6852C10.4273 19.6783 10.494 19.6563 10.5534 19.6206C10.6129 19.5849 10.6637 19.5364 10.7021 19.4787L11.1196 18.8525C11.265 18.6341 11.474 18.4655 11.7184 18.3697V18.4406C11.7177 18.8135 11.5699 19.1711 11.3072 19.4357L10.9744 19.7685C10.6147 20.1264 10.3294 20.5521 10.1353 21.021C9.94115 21.4898 9.84194 21.9925 9.84339 22.5C9.84345 22.615 9.88578 22.7259 9.96231 22.8117C10.0388 22.8976 10.1442 22.9522 10.2585 22.9654L9.98929 23.5038L9.40417 23.6503L8.2081 22.3126C8.36995 22.0556 8.44412 21.753 8.41951 21.4502C8.39489 21.1474 8.27281 20.8608 8.07156 20.6333C7.87032 20.4057 7.60074 20.2495 7.30325 20.1881C7.00576 20.1267 6.69637 20.1633 6.42146 20.2926C6.14655 20.4218 5.92093 20.6366 5.77842 20.9049C5.63591 21.1732 5.58418 21.4804 5.63098 21.7805C5.67779 22.0807 5.82061 22.3576 6.03804 22.5697C6.25547 22.7818 6.5358 22.9178 6.837 22.9571C6.89791 22.9651 6.95927 22.9691 7.02069 22.9692C7.1735 22.9687 7.32519 22.9432 7.4697 22.8935L8.37614 23.9072L8.32341 23.9204C8.26369 23.9353 8.20749 23.9619 8.15803 23.9985C8.10857 24.0351 8.06681 24.0812 8.03514 24.134C7.97117 24.2406 7.95218 24.3682 7.98234 24.4888C8.01249 24.6095 8.08932 24.7132 8.19593 24.7771C8.30255 24.8411 8.4302 24.8601 8.55081 24.8299L9.08401 24.6967L9.4954 25.1531C9.53662 25.1988 9.58644 25.236 9.64201 25.2624C9.69759 25.2889 9.75784 25.3042 9.81932 25.3074C9.88079 25.3105 9.9423 25.3016 10.0003 25.281C10.0583 25.2604 10.1117 25.2286 10.1575 25.1874C10.2032 25.1462 10.2403 25.0964 10.2668 25.0408C10.2933 24.9852 10.3085 24.925 10.3117 24.8635C10.3149 24.802 10.306 24.7405 10.2854 24.6825C10.2648 24.6245 10.233 24.5711 10.1918 24.5254L10.1141 24.4392L10.426 24.3612C10.4916 24.3448 10.5529 24.3144 10.6057 24.272C10.6584 24.2297 10.7014 24.1765 10.7316 24.116L11.305 22.9688H11.7184C11.8054 22.9687 11.8908 22.9445 11.9648 22.8987C12.0389 22.8529 12.0987 22.7875 12.1376 22.7096C12.333 22.3164 12.623 21.9777 12.9814 21.724L13.1147 21.924L12.009 23.8589C11.5117 24.73 11.25 25.7157 11.2496 26.7188C11.2496 26.8431 11.299 26.9623 11.3869 27.0502C11.4748 27.1381 11.5941 27.1875 11.7184 27.1875C11.8427 27.1875 11.9619 27.1381 12.0498 27.0502C12.1378 26.9623 12.1871 26.8431 12.1871 26.7188C12.1875 25.8788 12.4067 25.0535 12.8231 24.3241L13.4633 23.2037L13.4072 23.3439C12.9013 24.6014 12.8073 25.9869 13.1386 27.3012C13.1533 27.3611 13.1797 27.4176 13.2163 27.4673C13.2529 27.5171 13.299 27.5591 13.3518 27.591C13.4047 27.6228 13.4633 27.644 13.5244 27.6531C13.5855 27.6623 13.6477 27.6593 13.7076 27.6443C13.7675 27.6293 13.8239 27.6027 13.8734 27.5659C13.923 27.529 13.9648 27.4828 13.9964 27.4298C14.0281 27.3768 14.0489 27.318 14.0578 27.2569C14.0667 27.1958 14.0634 27.1336 14.0481 27.0738C13.765 25.9506 13.8454 24.7667 14.2776 23.6921L14.2835 23.6772L14.5308 24.0481V28.5938C14.5308 28.7181 14.5802 28.8373 14.6681 28.9252C14.756 29.0131 14.8752 29.0625 14.9995 29.0625C15.1238 29.0625 15.2431 29.0131 15.331 28.9252C15.4189 28.8373 15.4683 28.7181 15.4683 28.5938V24.0479L15.7155 23.677L15.7214 23.6919C16.1537 24.7664 16.234 25.9504 15.9509 27.0735C15.9357 27.1334 15.9324 27.1956 15.9413 27.2567C15.9501 27.3178 15.971 27.3765 16.0026 27.4296C16.0343 27.4826 16.0761 27.5288 16.1256 27.5656C16.1752 27.6024 16.2315 27.6291 16.2914 27.6441C16.3513 27.659 16.4136 27.662 16.4746 27.6529C16.5357 27.6437 16.5943 27.6226 16.6472 27.5907C16.7001 27.5588 16.7461 27.5168 16.7827 27.4671C16.8193 27.4174 16.8457 27.3609 16.8604 27.3009C17.1917 25.9867 17.0976 24.6012 16.5918 23.3437L16.5357 23.2031L17.176 24.3237C17.5925 25.0532 17.8118 25.8787 17.8121 26.7188C17.8121 26.8431 17.8615 26.9623 17.9494 27.0502C18.0373 27.1381 18.1566 27.1875 18.2809 27.1875C18.4052 27.1875 18.5244 27.1381 18.6123 27.0502C18.7003 26.9623 18.7496 26.8431 18.7496 26.7188C18.7492 25.7157 18.4875 24.73 17.9902 23.8589L16.8845 21.924L17.0178 21.724C17.3762 21.9777 17.6661 22.3164 17.8615 22.7096C17.9005 22.7875 17.9603 22.853 18.0344 22.8988C18.1085 22.9445 18.1938 22.9688 18.2809 22.9688H18.6943L19.2679 24.1158C19.2981 24.1763 19.341 24.2294 19.3937 24.2717C19.4464 24.314 19.5076 24.3444 19.5731 24.3609L20.7857 24.665C20.9142 24.9554 21.1144 25.2084 21.3675 25.4003C21.6205 25.5922 21.9182 25.7166 22.2325 25.7619C22.5468 25.8073 22.8675 25.7721 23.1645 25.6595C23.4615 25.547 23.725 25.3609 23.9304 25.1187C24.1358 24.8765 24.2762 24.586 24.3387 24.2746C24.4011 23.9633 24.3834 23.6411 24.2872 23.3385C24.1911 23.0358 24.0196 22.7625 23.7889 22.5442C23.5582 22.326 23.2759 22.1698 22.9684 22.0905V21.5625C22.9684 21.4382 22.919 21.319 22.8311 21.231C22.7432 21.1431 22.624 21.0938 22.4996 21.0938C22.3753 21.0938 22.2561 21.1431 22.1682 21.231C22.0803 21.319 22.0309 21.4382 22.0309 21.5625V22.0905C21.6692 22.1847 21.3439 22.3845 21.0963 22.6644C20.8488 22.9444 20.6903 23.2918 20.641 23.6622L20.0101 23.504L19.7406 22.9655C19.8549 22.9524 19.9603 22.8977 20.0369 22.8118C20.1135 22.726 20.1558 22.615 20.1559 22.5C20.1574 21.9926 20.0582 21.4899 19.8641 21.021C19.67 20.5521 19.3848 20.1264 19.025 19.7685L18.6922 19.4357C18.4295 19.171 18.2818 18.8135 18.2811 18.4406V18.3697C18.5254 18.4655 18.7344 18.6341 18.8798 18.8525L19.2973 19.4787C19.3358 19.5364 19.3866 19.5849 19.446 19.6206C19.5055 19.6563 19.5721 19.6783 19.6411 19.6852C19.7102 19.692 19.7798 19.6834 19.8451 19.6601C19.9104 19.6367 19.9697 19.5992 20.0188 19.5502L20.6248 18.9441L21.6996 20.0189C21.7652 20.0844 21.8487 20.129 21.9396 20.1471C22.0305 20.1651 22.1247 20.1558 22.2103 20.1203C22.2959 20.0849 22.3691 20.0248 22.4206 19.9478C22.4721 19.8708 22.4996 19.7802 22.4996 19.6875V18.6187C23.319 19.0144 24.2173 19.2195 25.1273 19.2188H25.3121C25.397 19.2187 25.4802 19.1957 25.553 19.1521C25.6258 19.1085 25.6854 19.046 25.7254 18.9712C25.7655 18.8964 25.7844 18.8121 25.7803 18.7273C25.7762 18.6426 25.7492 18.5606 25.7021 18.49C25.2189 17.7658 24.602 17.1404 23.8844 16.6475C25.0115 16.4309 26.0916 16.0175 27.0753 15.4262L27.8971 14.9331C27.9812 14.8827 28.0473 14.8071 28.0862 14.7171C28.1251 14.627 28.1348 14.5271 28.1139 14.4313C28.093 14.3354 28.0425 14.2486 27.9697 14.1829C27.8968 14.1173 27.8052 14.0761 27.7077 14.0653L25.4372 13.8131L25.7692 13.6886C26.8913 13.2702 27.8523 12.5077 28.5147 11.51C28.5646 11.4353 28.592 11.3478 28.5935 11.2579C28.5951 11.1681 28.5709 11.0797 28.5236 11.0032C28.4764 10.9268 28.4082 10.8656 28.3271 10.8268C28.246 10.788 28.1556 10.7734 28.0664 10.7846L25.9029 11.055L26.118 10.8758C27.0774 10.0756 27.8126 9.0401 28.2519 7.87061ZM6.959 22.0271C6.8412 22.0115 6.73375 21.9516 6.65839 21.8597C6.58304 21.7678 6.5454 21.6508 6.55309 21.5322C6.56078 21.4136 6.61322 21.3023 6.69982 21.2209C6.78641 21.1396 6.90068 21.0941 7.01952 21.0938C7.11638 21.0936 7.2109 21.1235 7.29005 21.1793C7.36921 21.2351 7.42911 21.3141 7.46148 21.4054C7.49385 21.4966 7.49711 21.5957 7.4708 21.6889C7.4445 21.7821 7.38992 21.8649 7.3146 21.9258C7.30546 21.9321 7.29655 21.9388 7.28777 21.9458C7.19218 22.0131 7.0749 22.0421 6.959 22.0271ZM22.4996 24.8438C22.3353 24.8435 22.1739 24.8001 22.0316 24.7178C21.8893 24.6356 21.7712 24.5173 21.689 24.375H23.3103C23.2281 24.5173 23.11 24.6356 22.9677 24.7178C22.8254 24.8001 22.664 24.8435 22.4996 24.8438ZM23.3103 23.4375H22.9684V23.0956C23.1102 23.1779 23.228 23.2957 23.3103 23.4375ZM22.0309 23.0956V23.4375H21.689C21.7713 23.2957 21.8891 23.1778 22.0309 23.0954V23.0956ZM12.6559 13.125H17.3434V18.543C17.3435 18.6415 17.3126 18.7374 17.255 18.8172C17.1975 18.8971 17.1163 18.9567 17.0229 18.9878L14.9996 19.6622L12.9764 18.9878C12.883 18.9567 12.8018 18.8971 12.7442 18.8172C12.6867 18.7374 12.6558 18.6415 12.6559 18.543V13.125ZM20.5377 8.33848C20.2797 8.20857 19.9985 8.13112 19.7104 8.11064C19.4222 8.09015 19.1329 8.12702 18.8591 8.21912C18.2899 8.40989 17.8 8.78408 17.4661 9.28307C17.2686 9.57769 17.1314 9.90857 17.0625 10.2566C16.9937 10.6046 16.9945 10.9627 17.065 11.3104L17.2404 12.1875H15.5401L15.7787 10.5176C15.8983 9.68008 16.316 8.91385 16.9551 8.35953C17.5942 7.80522 18.4118 7.50003 19.2578 7.5H19.8004C20.0317 7.49996 20.2563 7.5772 20.4386 7.71946C20.6209 7.86172 20.7505 8.06083 20.8066 8.28516L20.8602 8.49943L20.5377 8.33848ZM18.8239 5.00033L19.4487 4.79051C19.6038 4.74187 19.7702 4.74187 19.9253 4.79051L20.5542 5.00279L20.231 6.61066C20.0897 6.57882 19.9453 6.56261 19.8004 6.56232H19.2578C19.2167 6.56232 19.1757 6.56291 19.1348 6.56408L18.8239 5.00033ZM13.6508 3.38789L14.9996 2.8483L16.3486 3.38789C16.4595 3.43239 16.5493 3.51753 16.5995 3.62595C16.6498 3.73437 16.6569 3.85789 16.6192 3.97131L16.068 5.625H13.9312L13.3801 3.9716C13.3423 3.85814 13.3493 3.73454 13.3996 3.62605C13.4499 3.51757 13.5398 3.43238 13.6508 3.38789ZM13.8441 6.56221H16.1549L16.6947 7.37186C15.8849 7.94379 15.2885 8.76897 14.9995 9.7173C14.7105 8.769 14.1141 7.94384 13.3043 7.37186L13.8441 6.56221ZM10.0737 4.79051C10.2288 4.74179 10.3952 4.74179 10.5503 4.79051L11.1792 5.00273L10.8654 6.56402C10.8242 6.56289 10.7829 6.5623 10.7415 6.56227H10.1989C10.0542 6.56254 9.91004 6.57871 9.76892 6.61049L9.44882 5.00033L10.0737 4.79051ZM11.1401 8.21912C10.8663 8.12701 10.5769 8.09013 10.2888 8.11062C10.0006 8.1311 9.71942 8.20855 9.46142 8.33848L9.13915 8.49967L9.19271 8.28533C9.24885 8.06099 9.37837 7.86184 9.56067 7.71955C9.74298 7.57726 9.96762 7.49998 10.1989 7.5H10.7415C11.5875 7.5 12.4051 7.80517 13.0442 8.35949C13.6833 8.91381 14.101 9.68007 14.2206 10.5176L14.4592 12.1875H12.759L12.9343 11.3109C13.0048 10.9632 13.0056 10.605 12.9368 10.257C12.8679 9.90904 12.7307 9.57815 12.5331 9.28354C12.1994 8.78437 11.7095 8.41002 11.1402 8.21912H11.1401ZM10.3394 18.3324L10.2391 18.4828L9.70593 17.9496C9.61802 17.8617 9.4988 17.8123 9.37449 17.8123C9.25018 17.8123 9.13097 17.8617 9.04306 17.9496L8.43702 18.5556V17.8125C8.43703 17.7276 8.41401 17.6444 8.37041 17.5716C8.32681 17.4988 8.26428 17.4392 8.18947 17.3992C8.11466 17.3591 8.03038 17.3401 7.94563 17.3442C7.86088 17.3483 7.77883 17.3754 7.70823 17.4224C7.10758 17.8236 6.42851 18.0926 5.71605 18.2115C6.18573 17.7191 6.73702 17.3117 7.34554 17.0071L7.70882 16.8255C7.79735 16.7812 7.86961 16.7101 7.91522 16.6223C7.96084 16.5344 7.97749 16.4344 7.96278 16.3365C7.94806 16.2386 7.90274 16.1479 7.83332 16.0774C7.76389 16.0069 7.67391 15.9601 7.57628 15.9438L6.51456 15.7669C5.5631 15.6091 4.64389 15.2966 3.79341 14.8418L6.61388 14.5284C6.71861 14.5168 6.81636 14.4702 6.89137 14.3962C6.96638 14.3222 7.01428 14.2251 7.02732 14.1206C7.04036 14.016 7.01779 13.9101 6.96325 13.8199C6.90872 13.7298 6.82539 13.6606 6.72673 13.6236L4.55917 12.8105C3.9879 12.5973 3.46301 12.2761 3.01317 11.8644L5.5664 12.1836C5.66693 12.1961 5.76883 12.1758 5.85683 12.1256C5.94483 12.0754 6.01419 11.998 6.05454 11.9051C6.09488 11.8122 6.10403 11.7087 6.08061 11.6101C6.05719 11.5115 6.00247 11.4232 5.92464 11.3583L4.4813 10.1555C3.64682 9.45947 3.00729 8.55874 2.62528 7.54143L2.45964 7.09975L8.61948 12.1726C8.68753 12.2287 8.73825 12.303 8.76578 12.3869C8.7933 12.4707 8.7965 12.5606 8.77499 12.6462C8.73321 12.8095 8.68675 12.9901 8.64157 13.1627C8.55814 13.483 8.57672 13.8215 8.69472 14.1308C8.81272 14.4401 9.02426 14.7049 9.29988 14.8883L9.31804 14.9003C9.62507 15.1051 9.99416 15.1958 10.3611 15.1566C10.7281 15.1174 11.0697 14.9508 11.3266 14.6858C11.3437 14.6682 11.3594 14.6492 11.3734 14.629L11.7183 14.1383V15.2344L11.3829 15.4859C11.0649 15.7238 10.6811 15.8575 10.2841 15.8685C9.8871 15.8795 9.49644 15.7674 9.16575 15.5474C9.11453 15.5133 9.05709 15.4896 8.9967 15.4776C8.93632 15.4657 8.87417 15.4657 8.81381 15.4778C8.75344 15.4899 8.69605 15.5137 8.64491 15.548C8.59376 15.5822 8.54986 15.6262 8.51572 15.6775C8.48157 15.7287 8.45785 15.7861 8.4459 15.8465C8.43396 15.9069 8.43402 15.969 8.4461 16.0294C8.45817 16.0898 8.48201 16.1472 8.51627 16.1983C8.55052 16.2495 8.59451 16.2934 8.64573 16.3275C9.09896 16.629 9.62879 16.795 10.173 16.8059C10.7173 16.8168 11.2533 16.6722 11.7183 16.3891V17.3945C11.1541 17.5156 10.6594 17.852 10.3396 18.3323L10.3394 18.3324ZM18.3618 20.4313C18.7974 20.8645 19.0843 21.4247 19.1813 22.0312H18.5573C18.2053 21.4481 17.6943 20.9775 17.0843 20.6745C16.9821 20.6234 16.8648 20.6114 16.7543 20.6407C16.6439 20.67 16.548 20.7386 16.4846 20.8337L14.9996 23.0612L13.5146 20.8335C13.4513 20.7384 13.3554 20.6698 13.245 20.6405C13.1346 20.6111 13.0172 20.6231 12.9151 20.6742C12.305 20.9773 11.7939 21.4481 11.4419 22.0312H10.8179C10.915 21.4248 11.2019 20.8647 11.6374 20.4316L11.9702 20.0988C12.0956 19.9729 12.2061 19.833 12.2996 19.6818C12.4156 19.766 12.5439 19.8319 12.6799 19.8773L14.8514 20.6012C14.9476 20.6333 15.0517 20.6333 15.1479 20.6012L17.3193 19.8773C17.4553 19.8319 17.5836 19.766 17.6997 19.6818C17.7931 19.833 17.9037 19.9729 18.0291 20.0988L18.3618 20.4313ZM25.5179 10.1555L24.0746 11.3583C23.9968 11.4232 23.942 11.5115 23.9186 11.6101C23.8952 11.7086 23.9043 11.8121 23.9447 11.9051C23.985 11.998 24.0544 12.0754 24.1424 12.1256C24.2304 12.1758 24.3322 12.1961 24.4328 12.1836L26.9861 11.8644C26.5363 12.2761 26.0114 12.5973 25.4401 12.8105L23.2726 13.6233C23.1739 13.6603 23.0906 13.7295 23.036 13.8196C22.9815 13.9098 22.9589 14.0157 22.972 14.1203C22.985 14.2248 23.0329 14.3219 23.1079 14.3959C23.1829 14.47 23.2807 14.5165 23.3854 14.5281L26.2059 14.8415C25.3553 15.2964 24.4359 15.6089 23.4844 15.7666L22.4226 15.9436C22.325 15.9599 22.235 16.0066 22.1656 16.0772C22.0962 16.1477 22.0509 16.2384 22.0362 16.3363C22.0214 16.4342 22.0381 16.5342 22.0837 16.622C22.1293 16.7099 22.2016 16.781 22.2901 16.8253L22.6534 17.0069C23.2619 17.3115 23.8132 17.7189 24.2828 18.2113C23.5704 18.0924 22.8913 17.8234 22.2906 17.4222C22.22 17.3752 22.138 17.3482 22.0533 17.3442C21.9685 17.3401 21.8843 17.3592 21.8095 17.3992C21.7348 17.4393 21.6723 17.4989 21.6287 17.5717C21.5851 17.6444 21.5621 17.7277 21.5621 17.8125V18.5558L20.9561 17.9498C20.9126 17.9063 20.8609 17.8717 20.804 17.8482C20.7472 17.8246 20.6862 17.8125 20.6246 17.8125C20.5631 17.8125 20.5021 17.8246 20.4453 17.8482C20.3884 17.8717 20.3367 17.9063 20.2932 17.9498L19.76 18.483L19.6597 18.3326C19.3398 17.8522 18.8451 17.5157 18.2809 17.3946V16.3887C18.7458 16.6718 19.2819 16.8163 19.8261 16.8054C20.3704 16.7945 20.9002 16.6285 21.3534 16.327C21.4569 16.2581 21.5287 16.1508 21.5531 16.0289C21.5775 15.907 21.5524 15.7804 21.4834 15.677C21.4145 15.5735 21.3073 15.5017 21.1854 15.4774C21.0635 15.453 20.9369 15.478 20.8334 15.547C20.5027 15.7669 20.1121 15.8791 19.7151 15.868C19.3181 15.857 18.9343 15.7234 18.6163 15.4854L18.2809 15.2344V14.1387L18.6257 14.6294C18.6398 14.6495 18.6555 14.6685 18.6726 14.6862C18.9295 14.9511 19.2712 15.1177 19.6381 15.1568C20.0051 15.196 20.3742 15.1052 20.6812 14.9004L20.6997 14.8881C20.9752 14.7047 21.1867 14.44 21.3046 14.1307C21.4226 13.8214 21.4411 13.4831 21.3577 13.1628C21.3125 12.9902 21.266 12.8096 21.2243 12.6462C21.2028 12.5607 21.206 12.4707 21.2335 12.3869C21.261 12.3031 21.3118 12.2288 21.3798 12.1726L27.5396 7.09975L27.3741 7.54143C26.992 8.55874 26.3524 9.45948 25.5179 10.1555Z"/>
<path d="M13.731 17.675C13.7746 17.7185 13.8262 17.753 13.8831 17.7766C13.94 17.8002 14.0009 17.8123 14.0625 17.8123C14.1241 17.8123 14.185 17.8002 14.2419 17.7766C14.2988 17.753 14.3504 17.7185 14.394 17.675C14.5576 17.5117 14.6777 17.3101 14.7436 17.0885C14.8094 16.8669 14.8188 16.6324 14.7709 16.4062H15.2546C15.3944 16.5989 15.4694 16.831 15.4687 17.0691V17.3438C15.4687 17.4681 15.5181 17.5873 15.606 17.6752C15.6939 17.7631 15.8132 17.8125 15.9375 17.8125C16.0618 17.8125 16.181 17.7631 16.2689 17.6752C16.3569 17.5873 16.4062 17.4681 16.4062 17.3438V17.0691C16.4074 16.6044 16.2508 16.1529 15.9621 15.7887C15.9933 15.6956 16.053 15.6147 16.1327 15.5573C16.2124 15.4999 16.308 15.4689 16.4062 15.4688C16.5306 15.4688 16.6498 15.4194 16.7377 15.3315C16.8256 15.2435 16.875 15.1243 16.875 15C16.875 14.8757 16.8256 14.7565 16.7377 14.6685C16.6498 14.5806 16.5306 14.5312 16.4062 14.5312C16.1155 14.5316 15.8321 14.6219 15.5947 14.7898C15.3574 14.9576 15.1778 15.1948 15.0806 15.4688H14.5312V14.5312C14.5312 14.4069 14.4819 14.2877 14.394 14.1998C14.306 14.1119 14.1868 14.0625 14.0625 14.0625C13.9382 14.0625 13.8189 14.1119 13.731 14.1998C13.6431 14.2877 13.5938 14.4069 13.5938 14.5312V15.9375C13.5938 16.0095 13.6106 16.0806 13.6427 16.145C13.6427 16.1457 13.6427 16.1465 13.6433 16.1471L13.8155 16.4917C13.8579 16.5763 13.8726 16.6722 13.8574 16.7656C13.8423 16.8591 13.798 16.9454 13.731 17.0123C13.6432 17.1002 13.5939 17.2194 13.5939 17.3436C13.5939 17.4679 13.6432 17.5871 13.731 17.675Z"/>
</svg>
