<svg width="57" height="57" viewBox="0 0 57 57" fill="none" xmlns="http://www.w3.org/2000/svg">
<circle cx="28.5" cy="28.5" r="28.5" fill="#E8E8E8" fill-opacity="0.5"/>
<path d="M42.2519 20.8706L43.0323 18.7891C43.0685 18.6924 43.0719 18.5865 43.0418 18.4878C43.0117 18.3891 42.9498 18.3031 42.8659 18.2431C42.7819 18.1831 42.6805 18.1525 42.5773 18.1561C42.4742 18.1596 42.3751 18.1971 42.2954 18.2627L34.7838 24.4492C34.5787 24.6188 34.4259 24.8431 34.3431 25.0961C34.2603 25.3491 34.2509 25.6203 34.316 25.8784C34.3581 26.0435 34.4051 26.226 34.4507 26.4004C34.4848 26.5319 34.477 26.6708 34.4284 26.7977C34.3799 26.9246 34.2929 27.0332 34.1797 27.1083L34.1612 27.1206C34.0412 27.2007 33.8976 27.2379 33.7537 27.2262C33.6099 27.2145 33.4742 27.1546 33.3686 27.0562L32.2525 25.4677L31.9844 24.127C31.9383 23.9 31.9377 23.6661 31.9827 23.4389C32.0276 23.2117 32.1172 22.9957 32.2461 22.8033C32.4641 22.4776 32.7839 22.2333 33.1555 22.1087C33.3126 22.0559 33.4786 22.0347 33.6438 22.0465C33.8091 22.0582 33.9705 22.1027 34.1185 22.1772L35.3526 22.7942C35.4327 22.8343 35.5227 22.8505 35.6118 22.841C35.701 22.8315 35.7855 22.7966 35.8554 22.7405C35.9253 22.6844 35.9777 22.6095 36.0063 22.5245C36.035 22.4396 36.0386 22.3482 36.0169 22.2613L35.7162 21.0582C35.6184 20.667 35.4029 20.3151 35.099 20.0501L35.4734 18.1871C35.5178 17.9626 35.4789 17.7296 35.364 17.5317C35.249 17.3338 35.0659 17.1845 34.8489 17.1118L34.2208 16.9009L34.2149 16.8989C34.1955 16.8927 34.1757 16.8881 34.1563 16.8826V16.2812C34.1563 16.1569 34.1069 16.0377 34.019 15.9498C33.9311 15.8619 33.8119 15.8125 33.6876 15.8125C33.5632 15.8125 33.444 15.8619 33.3561 15.9498C33.2682 16.0377 33.2188 16.1569 33.2188 16.2812V16.8824C33.1992 16.8879 33.1794 16.8925 33.1602 16.8987L33.1543 16.9006L32.5274 17.1113C32.3101 17.1839 32.1267 17.3332 32.0116 17.5313C31.8965 17.7294 31.8575 17.9626 31.902 18.1874L32.2036 19.688C31.9692 19.7447 31.7398 19.8205 31.5177 19.9146L30.9241 19.024L31.5095 17.2676C31.6226 16.9274 31.6016 16.5568 31.4507 16.2315C31.2999 15.9062 31.0305 15.6507 30.6977 15.5172L29.4694 15.0259V14.4062C29.4694 14.2819 29.42 14.1627 29.3321 14.0748C29.2442 13.9869 29.125 13.9375 29.0006 13.9375C28.8763 13.9375 28.7571 13.9869 28.6692 14.0748C28.5813 14.1627 28.5319 14.2819 28.5319 14.4062V15.0261L27.3025 15.5174C26.9698 15.6509 26.7005 15.9064 26.5496 16.2317C26.3988 16.5569 26.3777 16.9275 26.4907 17.2678L27.0762 19.0242L26.4826 19.9148C26.2605 19.8207 26.0311 19.7449 25.7967 19.6882L26.0984 18.1871C26.1428 17.9626 26.104 17.7295 25.989 17.5315C25.8741 17.3336 25.6909 17.1843 25.4738 17.1116L24.8457 16.9006L24.8398 16.8987C24.8204 16.8924 24.8006 16.8879 24.7812 16.8824V16.2812C24.7812 16.1569 24.7319 16.0377 24.6439 15.9498C24.556 15.8619 24.4368 15.8125 24.3125 15.8125C24.1882 15.8125 24.0689 15.8619 23.981 15.9498C23.8931 16.0377 23.8437 16.1569 23.8437 16.2812V16.8824C23.8241 16.8879 23.8043 16.8925 23.7851 16.8987L23.7793 16.9006L23.1523 17.1113C22.935 17.1839 22.7516 17.3332 22.6365 17.5313C22.5214 17.7294 22.4824 17.9626 22.527 18.1874L22.9012 20.0498C22.5973 20.3149 22.3819 20.6667 22.2841 21.058L21.9833 22.261C21.9615 22.348 21.9652 22.4394 21.9938 22.5243C22.0224 22.6093 22.0748 22.6842 22.1447 22.7403C22.2147 22.7964 22.2992 22.8313 22.3884 22.8408C22.4775 22.8503 22.5675 22.834 22.6477 22.7939L23.8818 22.177C24.0298 22.1024 24.1911 22.058 24.3564 22.0463C24.5217 22.0345 24.6876 22.0557 24.8447 22.1085C25.2163 22.2331 25.5361 22.4774 25.754 22.8031C25.883 22.9955 25.9726 23.2115 26.0175 23.4387C26.0625 23.6659 26.0619 23.8997 26.0159 24.1267L25.7478 25.4672L24.6316 27.0557C24.526 27.1542 24.3903 27.2142 24.2464 27.2259C24.1024 27.2376 23.9588 27.2003 23.8387 27.1202L23.8205 27.1081C23.7073 27.033 23.6204 26.9244 23.5718 26.7975C23.5232 26.6706 23.5154 26.5317 23.5494 26.4002C23.5951 26.2258 23.6421 26.0433 23.6842 25.8783C23.7493 25.6202 23.7399 25.3489 23.6571 25.0959C23.5743 24.8429 23.4215 24.6186 23.2163 24.449L15.7038 18.2629C15.6242 18.1973 15.5251 18.1598 15.422 18.1562C15.3188 18.1526 15.2174 18.1832 15.1334 18.2432C15.0494 18.3031 14.9876 18.3891 14.9574 18.4878C14.9273 18.5865 14.9306 18.6924 14.9668 18.7891L15.7473 20.8704C16.1865 22.0399 16.9216 23.0753 17.8809 23.8755L18.0961 24.0548L15.9326 23.7844C15.8435 23.7732 15.7531 23.7879 15.6721 23.8267C15.5911 23.8654 15.5229 23.9267 15.4757 24.003C15.4285 24.0794 15.4042 24.1678 15.4057 24.2576C15.4073 24.3473 15.4346 24.4348 15.4844 24.5095C16.1468 25.5072 17.1077 26.2698 18.2298 26.6881L18.5619 26.8126L16.2914 27.0648C16.1939 27.0757 16.1023 27.1168 16.0295 27.1825C15.9566 27.2481 15.9061 27.335 15.8852 27.4308C15.8643 27.5266 15.874 27.6266 15.9129 27.7166C15.9518 27.8066 16.0179 27.8822 16.102 27.9327L16.9238 28.426C17.9075 29.0173 18.9876 29.4307 20.1147 29.6472C19.3971 30.1402 18.7802 30.7655 18.297 31.4897C18.2498 31.5603 18.2227 31.6424 18.2186 31.7272C18.2145 31.812 18.2335 31.8963 18.2735 31.9712C18.3136 32.046 18.3732 32.1086 18.4461 32.1522C18.5189 32.1958 18.6022 32.2188 18.6871 32.2188H18.872C19.7819 32.2196 20.6802 32.0145 21.4996 31.6189V32.6875C21.4997 32.7802 21.5272 32.8708 21.5787 32.9479C21.6302 33.0249 21.7034 33.085 21.789 33.1205C21.8747 33.1559 21.9689 33.1652 22.0598 33.1471C22.1507 33.1291 22.2342 33.0844 22.2998 33.0189L23.3746 31.9441L23.9807 32.5502C24.0297 32.5992 24.089 32.6367 24.1543 32.6601C24.2196 32.6834 24.2893 32.692 24.3583 32.6852C24.4273 32.6783 24.494 32.6563 24.5534 32.6206C24.6129 32.5849 24.6637 32.5364 24.7021 32.4787L25.1196 31.8525C25.265 31.6341 25.474 31.4655 25.7184 31.3697V31.4406C25.7177 31.8135 25.5699 32.1711 25.3072 32.4357L24.9744 32.7685C24.6147 33.1264 24.3294 33.5521 24.1353 34.021C23.9412 34.4898 23.8419 34.9925 23.8434 35.5C23.8435 35.615 23.8858 35.7259 23.9623 35.8117C24.0388 35.8976 24.1442 35.9522 24.2585 35.9654L23.9893 36.5038L23.4042 36.6503L22.2081 35.3126C22.3699 35.0556 22.4441 34.753 22.4195 34.4502C22.3949 34.1474 22.2728 33.8608 22.0716 33.6333C21.8703 33.4057 21.6007 33.2495 21.3032 33.1881C21.0058 33.1267 20.6964 33.1633 20.4215 33.2926C20.1466 33.4218 19.9209 33.6366 19.7784 33.9049C19.6359 34.1732 19.5842 34.4804 19.631 34.7805C19.6778 35.0807 19.8206 35.3576 20.038 35.5697C20.2555 35.7818 20.5358 35.9178 20.837 35.9571C20.8979 35.9651 20.9593 35.9691 21.0207 35.9692C21.1735 35.9687 21.3252 35.9432 21.4697 35.8935L22.3761 36.9072L22.3234 36.9204C22.2637 36.9353 22.2075 36.9619 22.158 36.9985C22.1086 37.0351 22.0668 37.0812 22.0351 37.134C21.9712 37.2406 21.9522 37.3682 21.9823 37.4888C22.0125 37.6095 22.0893 37.7132 22.1959 37.7771C22.3025 37.8411 22.4302 37.8601 22.5508 37.8299L23.084 37.6967L23.4954 38.1531C23.5366 38.1988 23.5864 38.236 23.642 38.2624C23.6976 38.2889 23.7578 38.3042 23.8193 38.3074C23.8808 38.3105 23.9423 38.3016 24.0003 38.281C24.0583 38.2604 24.1117 38.2286 24.1575 38.1874C24.2032 38.1462 24.2403 38.0964 24.2668 38.0408C24.2933 37.9852 24.3085 37.925 24.3117 37.8635C24.3149 37.802 24.306 37.7405 24.2854 37.6825C24.2648 37.6245 24.233 37.5711 24.1918 37.5254L24.1141 37.4392L24.426 37.3612C24.4916 37.3448 24.5529 37.3144 24.6057 37.272C24.6584 37.2297 24.7014 37.1765 24.7316 37.116L25.305 35.9688H25.7184C25.8054 35.9687 25.8908 35.9445 25.9648 35.8987C26.0389 35.8529 26.0987 35.7875 26.1376 35.7096C26.333 35.3164 26.623 34.9777 26.9814 34.724L27.1147 34.924L26.009 36.8589C25.5117 37.73 25.25 38.7157 25.2496 39.7188C25.2496 39.8431 25.299 39.9623 25.3869 40.0502C25.4748 40.1381 25.5941 40.1875 25.7184 40.1875C25.8427 40.1875 25.9619 40.1381 26.0498 40.0502C26.1378 39.9623 26.1871 39.8431 26.1871 39.7188C26.1875 38.8788 26.4067 38.0535 26.8231 37.3241L27.4633 36.2037L27.4072 36.3439C26.9013 37.6014 26.8073 38.9869 27.1386 40.3012C27.1533 40.3611 27.1797 40.4176 27.2163 40.4673C27.2529 40.5171 27.299 40.5591 27.3518 40.591C27.4047 40.6228 27.4633 40.644 27.5244 40.6531C27.5855 40.6623 27.6477 40.6593 27.7076 40.6443C27.7675 40.6293 27.8239 40.6027 27.8734 40.5659C27.923 40.529 27.9648 40.4828 27.9964 40.4298C28.0281 40.3768 28.0489 40.318 28.0578 40.2569C28.0667 40.1958 28.0634 40.1336 28.0481 40.0738C27.765 38.9506 27.8454 37.7667 28.2776 36.6921L28.2835 36.6772L28.5308 37.0481V41.5938C28.5308 41.7181 28.5802 41.8373 28.6681 41.9252C28.756 42.0131 28.8752 42.0625 28.9995 42.0625C29.1238 42.0625 29.2431 42.0131 29.331 41.9252C29.4189 41.8373 29.4683 41.7181 29.4683 41.5938V37.0479L29.7155 36.677L29.7214 36.6919C30.1537 37.7664 30.234 38.9504 29.9509 40.0735C29.9357 40.1334 29.9324 40.1956 29.9413 40.2567C29.9501 40.3178 29.971 40.3765 30.0026 40.4296C30.0343 40.4826 30.0761 40.5288 30.1256 40.5656C30.1752 40.6024 30.2315 40.6291 30.2914 40.6441C30.3513 40.659 30.4136 40.662 30.4746 40.6529C30.5357 40.6437 30.5943 40.6226 30.6472 40.5907C30.7001 40.5588 30.7461 40.5168 30.7827 40.4671C30.8193 40.4174 30.8457 40.3609 30.8604 40.3009C31.1917 38.9867 31.0976 37.6012 30.5918 36.3437L30.5357 36.2031L31.176 37.3237C31.5925 38.0532 31.8118 38.8787 31.8121 39.7188C31.8121 39.8431 31.8615 39.9623 31.9494 40.0502C32.0373 40.1381 32.1566 40.1875 32.2809 40.1875C32.4052 40.1875 32.5244 40.1381 32.6123 40.0502C32.7003 39.9623 32.7496 39.8431 32.7496 39.7188C32.7492 38.7157 32.4875 37.73 31.9902 36.8589L30.8845 34.924L31.0178 34.724C31.3762 34.9777 31.6661 35.3164 31.8615 35.7096C31.9005 35.7875 31.9603 35.853 32.0344 35.8988C32.1085 35.9445 32.1938 35.9688 32.2809 35.9688H32.6943L33.2679 37.1158C33.2981 37.1763 33.341 37.2294 33.3937 37.2717C33.4464 37.314 33.5076 37.3444 33.5731 37.3609L34.7857 37.665C34.9142 37.9554 35.1144 38.2084 35.3675 38.4003C35.6205 38.5922 35.9182 38.7166 36.2325 38.7619C36.5468 38.8073 36.8675 38.7721 37.1645 38.6595C37.4615 38.547 37.725 38.3609 37.9304 38.1187C38.1358 37.8765 38.2762 37.586 38.3387 37.2746C38.4011 36.9633 38.3834 36.6411 38.2872 36.3385C38.1911 36.0358 38.0196 35.7625 37.7889 35.5442C37.5582 35.326 37.2759 35.1698 36.9684 35.0905V34.5625C36.9684 34.4382 36.919 34.319 36.8311 34.231C36.7432 34.1431 36.624 34.0938 36.4996 34.0938C36.3753 34.0938 36.2561 34.1431 36.1682 34.231C36.0803 34.319 36.0309 34.4382 36.0309 34.5625V35.0905C35.6692 35.1847 35.3439 35.3845 35.0963 35.6644C34.8488 35.9444 34.6903 36.2918 34.641 36.6622L34.0101 36.504L33.7406 35.9655C33.8549 35.9524 33.9603 35.8977 34.0369 35.8118C34.1135 35.726 34.1558 35.615 34.1559 35.5C34.1574 34.9926 34.0582 34.4899 33.8641 34.021C33.67 33.5521 33.3848 33.1264 33.025 32.7685L32.6922 32.4357C32.4295 32.171 32.2818 31.8135 32.2811 31.4406V31.3697C32.5254 31.4655 32.7344 31.6341 32.8798 31.8525L33.2973 32.4787C33.3358 32.5364 33.3866 32.5849 33.446 32.6206C33.5055 32.6563 33.5721 32.6783 33.6411 32.6852C33.7102 32.692 33.7798 32.6834 33.8451 32.6601C33.9104 32.6367 33.9697 32.5992 34.0188 32.5502L34.6248 31.9441L35.6996 33.0189C35.7652 33.0844 35.8487 33.129 35.9396 33.1471C36.0305 33.1651 36.1247 33.1558 36.2103 33.1203C36.2959 33.0849 36.3691 33.0248 36.4206 32.9478C36.4721 32.8708 36.4996 32.7802 36.4996 32.6875V31.6187C37.319 32.0144 38.2173 32.2195 39.1273 32.2188H39.3121C39.397 32.2187 39.4802 32.1957 39.553 32.1521C39.6258 32.1085 39.6854 32.046 39.7254 31.9712C39.7655 31.8964 39.7844 31.8121 39.7803 31.7273C39.7762 31.6426 39.7492 31.5606 39.7021 31.49C39.2189 30.7658 38.602 30.1404 37.8844 29.6475C39.0115 29.4309 40.0916 29.0175 41.0753 28.4262L41.8971 27.9331C41.9812 27.8827 42.0473 27.8071 42.0862 27.7171C42.1251 27.627 42.1348 27.5271 42.1139 27.4313C42.093 27.3354 42.0425 27.2486 41.9697 27.1829C41.8968 27.1173 41.8052 27.0761 41.7077 27.0653L39.4372 26.8131L39.7692 26.6886C40.8913 26.2702 41.8523 25.5077 42.5147 24.51C42.5646 24.4353 42.592 24.3478 42.5935 24.2579C42.5951 24.1681 42.5709 24.0797 42.5236 24.0032C42.4764 23.9268 42.4082 23.8656 42.3271 23.8268C42.246 23.788 42.1556 23.7734 42.0664 23.7846L39.9029 24.055L40.118 23.8758C41.0774 23.0756 41.8126 22.0401 42.2519 20.8706ZM20.959 35.0271C20.8412 35.0115 20.7337 34.9516 20.6584 34.8597C20.583 34.7678 20.5454 34.6508 20.5531 34.5322C20.5608 34.4136 20.6132 34.3023 20.6998 34.2209C20.7864 34.1396 20.9007 34.0941 21.0195 34.0938C21.1164 34.0936 21.2109 34.1235 21.2901 34.1793C21.3692 34.2351 21.4291 34.3141 21.4615 34.4054C21.4939 34.4966 21.4971 34.5957 21.4708 34.6889C21.4445 34.7821 21.3899 34.8649 21.3146 34.9258C21.3055 34.9321 21.2966 34.9388 21.2878 34.9458C21.1922 35.0131 21.0749 35.0421 20.959 35.0271ZM36.4996 37.8438C36.3353 37.8435 36.1739 37.8001 36.0316 37.7178C35.8893 37.6356 35.7712 37.5173 35.689 37.375H37.3103C37.2281 37.5173 37.11 37.6356 36.9677 37.7178C36.8254 37.8001 36.664 37.8435 36.4996 37.8438ZM37.3103 36.4375H36.9684V36.0956C37.1102 36.1779 37.228 36.2957 37.3103 36.4375ZM36.0309 36.0956V36.4375H35.689C35.7713 36.2957 35.8891 36.1778 36.0309 36.0954V36.0956ZM26.6559 26.125H31.3434V31.543C31.3435 31.6415 31.3126 31.7374 31.255 31.8172C31.1975 31.8971 31.1163 31.9567 31.0229 31.9878L28.9996 32.6622L26.9764 31.9878C26.883 31.9567 26.8018 31.8971 26.7442 31.8172C26.6867 31.7374 26.6558 31.6415 26.6559 31.543V26.125ZM34.5377 21.3385C34.2797 21.2086 33.9985 21.1311 33.7104 21.1106C33.4222 21.0901 33.1329 21.127 32.8591 21.2191C32.2899 21.4099 31.8 21.7841 31.4661 22.2831C31.2686 22.5777 31.1314 22.9086 31.0625 23.2566C30.9937 23.6046 30.9945 23.9627 31.065 24.3104L31.2404 25.1875H29.5401L29.7787 23.5176C29.8983 22.6801 30.316 21.9138 30.9551 21.3595C31.5942 20.8052 32.4118 20.5 33.2578 20.5H33.8004C34.0317 20.5 34.2563 20.5772 34.4386 20.7195C34.6209 20.8617 34.7505 21.0608 34.8066 21.2852L34.8602 21.4994L34.5377 21.3385ZM32.8239 18.0003L33.4487 17.7905C33.6038 17.7419 33.7702 17.7419 33.9253 17.7905L34.5542 18.0028L34.231 19.6107C34.0897 19.5788 33.9453 19.5626 33.8004 19.5623H33.2578C33.2167 19.5623 33.1757 19.5629 33.1348 19.5641L32.8239 18.0003ZM27.6508 16.3879L28.9996 15.8483L30.3486 16.3879C30.4595 16.4324 30.5493 16.5175 30.5995 16.626C30.6498 16.7344 30.6569 16.8579 30.6192 16.9713L30.068 18.625H27.9312L27.3801 16.9716C27.3423 16.8581 27.3493 16.7345 27.3996 16.6261C27.4499 16.5176 27.5398 16.4324 27.6508 16.3879ZM27.8441 19.5622H30.1549L30.6947 20.3719C29.8849 20.9438 29.2885 21.769 28.9995 22.7173C28.7105 21.769 28.1141 20.9438 27.3043 20.3719L27.8441 19.5622ZM24.0737 17.7905C24.2288 17.7418 24.3952 17.7418 24.5503 17.7905L25.1792 18.0027L24.8654 19.564C24.8242 19.5629 24.7829 19.5623 24.7415 19.5623H24.1989C24.0542 19.5625 23.91 19.5787 23.7689 19.6105L23.4488 18.0003L24.0737 17.7905ZM25.1401 21.2191C24.8663 21.127 24.5769 21.0901 24.2888 21.1106C24.0006 21.1311 23.7194 21.2086 23.4614 21.3385L23.1392 21.4997L23.1927 21.2853C23.2489 21.061 23.3784 20.8618 23.5607 20.7196C23.743 20.5773 23.9676 20.5 24.1989 20.5H24.7415C25.5875 20.5 26.4051 20.8052 27.0442 21.3595C27.6833 21.9138 28.101 22.6801 28.2206 23.5176L28.4592 25.1875H26.759L26.9343 24.3109C27.0048 23.9632 27.0056 23.605 26.9368 23.257C26.8679 22.909 26.7307 22.5782 26.5331 22.2835C26.1994 21.7844 25.7095 21.41 25.1402 21.2191H25.1401ZM24.3394 31.3324L24.2391 31.4828L23.7059 30.9496C23.618 30.8617 23.4988 30.8123 23.3745 30.8123C23.2502 30.8123 23.131 30.8617 23.0431 30.9496L22.437 31.5556V30.8125C22.437 30.7276 22.414 30.6444 22.3704 30.5716C22.3268 30.4988 22.2643 30.4392 22.1895 30.3992C22.1147 30.3591 22.0304 30.3401 21.9456 30.3442C21.8609 30.3483 21.7788 30.3754 21.7082 30.4224C21.1076 30.8236 20.4285 31.0926 19.716 31.2115C20.1857 30.7191 20.737 30.3117 21.3455 30.0071L21.7088 29.8255C21.7974 29.7812 21.8696 29.7101 21.9152 29.6223C21.9608 29.5344 21.9775 29.4344 21.9628 29.3365C21.9481 29.2386 21.9027 29.1479 21.8333 29.0774C21.7639 29.0069 21.6739 28.9601 21.5763 28.9438L20.5146 28.7669C19.5631 28.6091 18.6439 28.2966 17.7934 27.8418L20.6139 27.5284C20.7186 27.5168 20.8164 27.4702 20.8914 27.3962C20.9664 27.3222 21.0143 27.2251 21.0273 27.1206C21.0404 27.016 21.0178 26.9101 20.9633 26.8199C20.9087 26.7298 20.8254 26.6606 20.7267 26.6236L18.5592 25.8105C17.9879 25.5973 17.463 25.2761 17.0132 24.8644L19.5664 25.1836C19.6669 25.1961 19.7688 25.1758 19.8568 25.1256C19.9448 25.0754 20.0142 24.998 20.0545 24.9051C20.0949 24.8122 20.104 24.7087 20.0806 24.6101C20.0572 24.5115 20.0025 24.4232 19.9246 24.3583L18.4813 23.1555C17.6468 22.4595 17.0073 21.5587 16.6253 20.5414L16.4596 20.0997L22.6195 25.1726C22.6875 25.2287 22.7383 25.303 22.7658 25.3869C22.7933 25.4707 22.7965 25.5606 22.775 25.6462C22.7332 25.8095 22.6867 25.9901 22.6416 26.1627C22.5581 26.483 22.5767 26.8215 22.6947 27.1308C22.8127 27.4401 23.0243 27.7049 23.2999 27.8883L23.318 27.9003C23.6251 28.1051 23.9942 28.1958 24.3611 28.1566C24.7281 28.1174 25.0697 27.9508 25.3266 27.6858C25.3437 27.6682 25.3594 27.6492 25.3734 27.629L25.7183 27.1383V28.2344L25.3829 28.4859C25.0649 28.7238 24.6811 28.8575 24.2841 28.8685C23.8871 28.8795 23.4964 28.7674 23.1658 28.5474C23.1145 28.5133 23.0571 28.4896 22.9967 28.4776C22.9363 28.4657 22.8742 28.4657 22.8138 28.4778C22.7534 28.4899 22.6961 28.5137 22.6449 28.548C22.5938 28.5822 22.5499 28.6262 22.5157 28.6775C22.4816 28.7287 22.4578 28.7861 22.4459 28.8465C22.434 28.9069 22.434 28.969 22.4461 29.0294C22.4582 29.0898 22.482 29.1472 22.5163 29.1983C22.5505 29.2495 22.5945 29.2934 22.6457 29.3275C23.099 29.629 23.6288 29.795 24.173 29.8059C24.7173 29.8168 25.2533 29.6722 25.7183 29.3891V30.3945C25.1541 30.5156 24.6594 30.852 24.3396 31.3323L24.3394 31.3324ZM32.3618 33.4313C32.7974 33.8645 33.0843 34.4247 33.1813 35.0312H32.5573C32.2053 34.4481 31.6943 33.9775 31.0843 33.6745C30.9821 33.6234 30.8648 33.6114 30.7543 33.6407C30.6439 33.67 30.548 33.7386 30.4846 33.8337L28.9996 36.0612L27.5146 33.8335C27.4513 33.7384 27.3554 33.6698 27.245 33.6405C27.1346 33.6111 27.0172 33.6231 26.9151 33.6742C26.305 33.9773 25.7939 34.4481 25.4419 35.0312H24.8179C24.915 34.4248 25.2019 33.8647 25.6374 33.4316L25.9702 33.0988C26.0956 32.9729 26.2061 32.833 26.2996 32.6818C26.4156 32.766 26.5439 32.8319 26.6799 32.8773L28.8514 33.6012C28.9476 33.6333 29.0517 33.6333 29.1479 33.6012L31.3193 32.8773C31.4553 32.8319 31.5836 32.766 31.6997 32.6818C31.7931 32.833 31.9037 32.9729 32.0291 33.0988L32.3618 33.4313ZM39.5179 23.1555L38.0746 24.3583C37.9968 24.4232 37.942 24.5115 37.9186 24.6101C37.8952 24.7086 37.9043 24.8121 37.9447 24.9051C37.985 24.998 38.0544 25.0754 38.1424 25.1256C38.2304 25.1758 38.3322 25.1961 38.4328 25.1836L40.9861 24.8644C40.5363 25.2761 40.0114 25.5973 39.4401 25.8105L37.2726 26.6233C37.1739 26.6603 37.0906 26.7295 37.036 26.8196C36.9815 26.9098 36.9589 27.0157 36.972 27.1203C36.985 27.2248 37.0329 27.3219 37.1079 27.3959C37.1829 27.47 37.2807 27.5165 37.3854 27.5281L40.2059 27.8415C39.3553 28.2964 38.4359 28.6089 37.4844 28.7666L36.4226 28.9436C36.325 28.9599 36.235 29.0066 36.1656 29.0772C36.0962 29.1477 36.0509 29.2384 36.0362 29.3363C36.0214 29.4342 36.0381 29.5342 36.0837 29.622C36.1293 29.7099 36.2016 29.781 36.2901 29.8253L36.6534 30.0069C37.2619 30.3115 37.8132 30.7189 38.2828 31.2113C37.5704 31.0924 36.8913 30.8234 36.2906 30.4222C36.22 30.3752 36.138 30.3482 36.0533 30.3442C35.9685 30.3401 35.8843 30.3592 35.8095 30.3992C35.7348 30.4393 35.6723 30.4989 35.6287 30.5717C35.5851 30.6444 35.5621 30.7277 35.5621 30.8125V31.5558L34.9561 30.9498C34.9126 30.9063 34.8609 30.8717 34.804 30.8482C34.7472 30.8246 34.6862 30.8125 34.6246 30.8125C34.5631 30.8125 34.5021 30.8246 34.4453 30.8482C34.3884 30.8717 34.3367 30.9063 34.2932 30.9498L33.76 31.483L33.6597 31.3326C33.3398 30.8522 32.8451 30.5157 32.2809 30.3946V29.3887C32.7458 29.6718 33.2819 29.8163 33.8261 29.8054C34.3704 29.7945 34.9002 29.6285 35.3534 29.327C35.4569 29.2581 35.5287 29.1508 35.5531 29.0289C35.5775 28.907 35.5524 28.7804 35.4834 28.677C35.4145 28.5735 35.3073 28.5017 35.1854 28.4774C35.0635 28.453 34.9369 28.478 34.8334 28.547C34.5027 28.7669 34.1121 28.8791 33.7151 28.868C33.3181 28.857 32.9343 28.7234 32.6163 28.4854L32.2809 28.2344V27.1387L32.6257 27.6294C32.6398 27.6495 32.6555 27.6685 32.6726 27.6862C32.9295 27.9511 33.2712 28.1177 33.6381 28.1568C34.0051 28.196 34.3742 28.1052 34.6812 27.9004L34.6997 27.8881C34.9752 27.7047 35.1867 27.44 35.3046 27.1307C35.4226 26.8214 35.4411 26.4831 35.3577 26.1628C35.3125 25.9902 35.266 25.8096 35.2243 25.6462C35.2028 25.5607 35.206 25.4707 35.2335 25.3869C35.261 25.3031 35.3118 25.2288 35.3798 25.1726L41.5396 20.0997L41.3741 20.5414C40.992 21.5587 40.3524 22.4595 39.5179 23.1555Z" fill="currentColor"/>
<path d="M27.731 30.675C27.7746 30.7185 27.8262 30.753 27.8831 30.7766C27.94 30.8002 28.0009 30.8123 28.0625 30.8123C28.1241 30.8123 28.185 30.8002 28.2419 30.7766C28.2988 30.753 28.3504 30.7185 28.394 30.675C28.5576 30.5117 28.6777 30.3101 28.7436 30.0885C28.8094 29.8669 28.8188 29.6324 28.7709 29.4062H29.2546C29.3944 29.5989 29.4694 29.831 29.4687 30.0691V30.3438C29.4687 30.4681 29.5181 30.5873 29.606 30.6752C29.6939 30.7631 29.8132 30.8125 29.9375 30.8125C30.0618 30.8125 30.181 30.7631 30.2689 30.6752C30.3569 30.5873 30.4062 30.4681 30.4062 30.3438V30.0691C30.4074 29.6044 30.2508 29.1529 29.9621 28.7887C29.9933 28.6956 30.053 28.6147 30.1327 28.5573C30.2124 28.4999 30.308 28.4689 30.4062 28.4688C30.5306 28.4688 30.6498 28.4194 30.7377 28.3315C30.8256 28.2435 30.875 28.1243 30.875 28C30.875 27.8757 30.8256 27.7565 30.7377 27.6685C30.6498 27.5806 30.5306 27.5312 30.4062 27.5312C30.1155 27.5316 29.8321 27.6219 29.5947 27.7898C29.3574 27.9576 29.1778 28.1948 29.0806 28.4688H28.5312V27.5312C28.5312 27.4069 28.4819 27.2877 28.394 27.1998C28.306 27.1119 28.1868 27.0625 28.0625 27.0625C27.9382 27.0625 27.8189 27.1119 27.731 27.1998C27.6431 27.2877 27.5938 27.4069 27.5938 27.5312V28.9375C27.5938 29.0095 27.6106 29.0806 27.6427 29.145C27.6427 29.1457 27.6427 29.1465 27.6433 29.1471L27.8155 29.4917C27.8579 29.5763 27.8726 29.6722 27.8574 29.7656C27.8423 29.8591 27.798 29.9454 27.731 30.0123C27.6432 30.1002 27.5939 30.2194 27.5939 30.3436C27.5939 30.4679 27.6432 30.5871 27.731 30.675Z" fill="currentColor"/>
</svg>
