<svg width="30" height="30" viewBox="0 0 30 30" fill="currentColor" xmlns="http://www.w3.org/2000/svg">
<path d="M29.4828 14.0379H22.8672V12.7603C22.8669 12.5738 22.7661 12.4018 22.6034 12.3103L15.5172 8.32759V6.30001H16.919V7.07069C16.919 7.35634 17.1506 7.58794 17.4362 7.58794H21.6621C21.9477 7.58781 22.1792 7.35615 22.1791 7.0705C22.1791 7.01063 22.1686 6.95121 22.1483 6.89483L21.7241 5.68966L22.1534 4.51035C22.2506 4.24171 22.1116 3.9452 21.8429 3.84809C21.7866 3.82772 21.7272 3.81731 21.6672 3.81725H19.7431V3.06725C19.7431 2.7816 19.5115 2.55001 19.2259 2.55001H15.5172V1.91897C15.5172 1.63333 15.2856 1.40173 15 1.40173C14.7144 1.40173 14.4828 1.63333 14.4828 1.91897V8.32759L7.39655 12.3052C7.23388 12.3966 7.13308 12.5686 7.13276 12.7552V14.0328H0.517241C0.231595 14.0328 0 14.2644 0 14.55V28.081C0 28.3667 0.231595 28.5983 0.517241 28.5983H29.4828C29.7684 28.5983 30 28.3667 30 28.081V14.5552C30 14.2695 29.7684 14.0379 29.4828 14.0379ZM19.7431 5.78276L19.7224 5.76208V4.87242H20.9017L20.6897 5.53449C20.6473 5.6497 20.6473 5.77617 20.6897 5.89139L20.9328 6.55345H17.9534V6.30001H19.2259C19.5115 6.30001 19.7431 6.06841 19.7431 5.78276ZM15.5172 3.58449H18.7086V4.35518V5.26552H15.5172V3.58449ZM7.13276 27.5638H1.03448V15.0724H7.13276V27.5638ZM14.4828 27.5638H11.7672V21.6569H14.4828V27.5638ZM18.2328 27.5638H15.5172V21.6569H18.2328V27.5638ZM21.8534 27.5638H19.2672V21.1397C19.2672 20.854 19.0356 20.6224 18.75 20.6224H11.25C10.9644 20.6224 10.7328 20.854 10.7328 21.1397V27.5638H8.14655V13.081L15 9.22242L21.8328 13.0603L21.8534 14.55V27.5638ZM28.9655 27.5638H22.8672V15.0724H28.9655V27.5638Z"/>
<path d="M15.0002 10.8052C13.8024 10.808 12.833 11.7798 12.833 12.9776C12.8359 14.1746 13.8085 15.1425 15.0054 15.1397C16.2024 15.1368 17.1703 14.1642 17.1675 12.9672C17.1646 11.7724 16.1951 10.8052 15.0002 10.8052ZM15.0002 14.1052C14.3746 14.1023 13.8698 13.5928 13.8727 12.9672C13.8755 12.3457 14.3787 11.8425 15.0002 11.8397C15.6267 11.8425 16.133 12.3511 16.133 12.9776H16.1382C16.1353 13.6032 15.6258 14.108 15.0002 14.1052Z"/>
<path d="M3.31573 16.2104H2.28125V18.2793H3.31573V16.2104Z"/>
<path d="M5.86554 16.2104H4.83105V18.2793H5.86554V16.2104Z"/>
<path d="M11.7877 16.2104H9.71875V17.2448H11.7877V16.2104Z"/>
<path d="M16.0343 16.2104H13.9653V17.2448H16.0343V16.2104Z"/>
<path d="M20.2809 16.2104H18.2119V17.2448H20.2809V16.2104Z"/>
<path d="M11.7877 18.6207H9.71875V19.6552H11.7877V18.6207Z"/>
<path d="M16.0343 18.6207H13.9653V19.6552H16.0343V18.6207Z"/>
<path d="M20.2809 18.6207H18.2119V19.6552H20.2809V18.6207Z"/>
<path d="M3.31573 20.281H2.28125V22.35H3.31573V20.281Z"/>
<path d="M5.86554 20.281H4.83105V22.35H5.86554V20.281Z"/>
<path d="M3.31573 24.3569H2.28125V26.4259H3.31573V24.3569Z"/>
<path d="M5.86554 24.3569H4.83105V26.4259H5.86554V24.3569Z"/>
<path d="M25.1692 16.2104H24.1348V18.2793H25.1692V16.2104Z"/>
<path d="M27.7186 16.2104H26.6841V18.2793H27.7186V16.2104Z"/>
<path d="M25.1692 20.281H24.1348V22.35H25.1692V20.281Z"/>
<path d="M27.7186 20.281H26.6841V22.35H27.7186V20.281Z"/>
<path d="M25.1692 24.3569H24.1348V26.4259H25.1692V24.3569Z"/>
<path d="M27.7186 24.3569H26.6841V26.4259H27.7186V24.3569Z"/>
</svg>
