<svg width="57" height="57" viewBox="0 0 57 57" fill="none" xmlns="http://www.w3.org/2000/svg">
<circle cx="28.5" cy="28.5" r="28.5" fill="#E8E8E8" fill-opacity="0.5"/>
<path d="M43.4828 27.0379H36.8672V25.7603C36.8669 25.5738 36.7661 25.4018 36.6034 25.3103L29.5172 21.3276V19.3H30.919V20.0707C30.919 20.3563 31.1506 20.5879 31.4362 20.5879H35.6621C35.9477 20.5878 36.1792 20.3561 36.1791 20.0705C36.1791 20.0106 36.1686 19.9512 36.1483 19.8948L35.7241 18.6897L36.1534 17.5104C36.2506 17.2417 36.1116 16.9452 35.8429 16.8481C35.7866 16.8277 35.7272 16.8173 35.6672 16.8172H33.7431V16.0672C33.7431 15.7816 33.5115 15.55 33.2259 15.55H29.5172V14.919C29.5172 14.6333 29.2856 14.4017 29 14.4017C28.7144 14.4017 28.4828 14.6333 28.4828 14.919V21.3276L21.3966 25.3052C21.2339 25.3966 21.1331 25.5686 21.1328 25.7552V27.0328H14.5172C14.2316 27.0328 14 27.2644 14 27.55V41.081C14 41.3667 14.2316 41.5983 14.5172 41.5983H43.4828C43.7684 41.5983 44 41.3667 44 41.081V27.5552C44 27.2695 43.7684 27.0379 43.4828 27.0379ZM33.7431 18.7828L33.7224 18.7621V17.8724H34.9017L34.6897 18.5345C34.6473 18.6497 34.6473 18.7762 34.6897 18.8914L34.9328 19.5535H31.9534V19.3H33.2259C33.5115 19.3 33.7431 19.0684 33.7431 18.7828ZM29.5172 16.5845H32.7086V17.3552V18.2655H29.5172V16.5845ZM21.1328 40.5638H15.0345V28.0724H21.1328V40.5638ZM28.4828 40.5638H25.7672V34.6569H28.4828V40.5638ZM32.2328 40.5638H29.5172V34.6569H32.2328V40.5638ZM35.8534 40.5638H33.2672V34.1397C33.2672 33.854 33.0356 33.6224 32.75 33.6224H25.25C24.9644 33.6224 24.7328 33.854 24.7328 34.1397V40.5638H22.1466V26.081L29 22.2224L35.8328 26.0603L35.8534 27.55V40.5638ZM42.9655 40.5638H36.8672V28.0724H42.9655V40.5638Z" fill="currentColor"/>
<path d="M29.0002 23.8052C27.8024 23.808 26.833 24.7798 26.833 25.9776C26.8359 27.1746 27.8085 28.1425 29.0054 28.1397C30.2024 28.1368 31.1703 27.1642 31.1675 25.9672C31.1646 24.7724 30.1951 23.8052 29.0002 23.8052ZM29.0002 27.1052C28.3746 27.1023 27.8698 26.5928 27.8727 25.9672C27.8755 25.3457 28.3787 24.8425 29.0002 24.8397C29.6267 24.8425 30.133 25.3511 30.133 25.9776H30.1382C30.1353 26.6032 29.6258 27.108 29.0002 27.1052Z" fill="currentColor"/>
<path d="M17.3157 29.2104H16.2812V31.2793H17.3157V29.2104Z" fill="currentColor"/>
<path d="M19.8655 29.2104H18.8311V31.2793H19.8655V29.2104Z" fill="currentColor"/>
<path d="M25.7877 29.2104H23.7188V30.2448H25.7877V29.2104Z" fill="currentColor"/>
<path d="M30.0343 29.2104H27.9653V30.2448H30.0343V29.2104Z" fill="currentColor"/>
<path d="M34.2809 29.2104H32.2119V30.2448H34.2809V29.2104Z" fill="currentColor"/>
<path d="M25.7877 31.6207H23.7188V32.6552H25.7877V31.6207Z" fill="currentColor"/>
<path d="M30.0343 31.6207H27.9653V32.6552H30.0343V31.6207Z" fill="currentColor"/>
<path d="M34.2809 31.6207H32.2119V32.6552H34.2809V31.6207Z" fill="currentColor"/>
<path d="M17.3157 33.281H16.2812V35.35H17.3157V33.281Z" fill="currentColor"/>
<path d="M19.8655 33.281H18.8311V35.35H19.8655V33.281Z" fill="currentColor"/>
<path d="M17.3157 37.3569H16.2812V39.4259H17.3157V37.3569Z" fill="currentColor"/>
<path d="M19.8655 37.3569H18.8311V39.4259H19.8655V37.3569Z" fill="currentColor"/>
<path d="M39.1692 29.2104H38.1348V31.2793H39.1692V29.2104Z" fill="currentColor"/>
<path d="M41.7186 29.2104H40.6841V31.2793H41.7186V29.2104Z" fill="currentColor"/>
<path d="M39.1692 33.281H38.1348V35.35H39.1692V33.281Z" fill="currentColor"/>
<path d="M41.7186 33.281H40.6841V35.35H41.7186V33.281Z" fill="currentColor"/>
<path d="M39.1692 37.3569H38.1348V39.4259H39.1692V37.3569Z" fill="currentColor"/>
<path d="M41.7186 37.3569H40.6841V39.4259H41.7186V37.3569Z" fill="currentColor"/>
</svg>
