<svg width="30" height="30" viewBox="0 0 30 30" fill="currentColor" xmlns="http://www.w3.org/2000/svg">
<path d="M25.9458 13.8573C26.8243 13.24 27.406 12.2131 27.406 11.0556C27.406 9.16205 25.8746 7.63059 23.981 7.63059C22.0875 7.63059 20.556 9.16205 20.556 11.0556C20.556 12.2131 21.1318 13.24 22.0162 13.8573C21.2624 14.1185 20.5738 14.5222 19.9921 15.0445C19.1907 14.3619 18.2469 13.8395 17.2141 13.5309C18.4666 12.7711 19.3095 11.388 19.3095 9.815C19.3095 7.4169 17.3684 5.47586 14.9703 5.47586C12.5722 5.47586 10.6312 7.42283 10.6312 9.815C10.6312 11.388 11.4681 12.7711 12.7266 13.5309C11.7056 13.8395 10.7736 14.356 9.97824 15.0267C9.39652 14.5162 8.71983 14.1185 7.97784 13.8633C8.85635 13.2459 9.43807 12.219 9.43807 11.0615C9.43807 9.16799 7.90661 7.63653 6.01306 7.63653C4.11951 7.63653 2.58805 9.16799 2.58805 11.0615C2.58805 12.219 3.16383 13.2459 4.04828 13.8633C1.69173 14.6765 0 16.9143 0 19.5439V19.9357C0 19.9476 0.0118718 19.9594 0.0237436 19.9594H7.28334C7.24179 20.2859 7.21805 20.6243 7.21805 20.9626V21.3662C7.21805 23.1114 8.63079 24.5241 10.3759 24.5241H19.5766C21.3217 24.5241 22.7345 23.1114 22.7345 21.3662V20.9626C22.7345 20.6243 22.7107 20.2859 22.6692 19.9594H29.9763C29.9881 19.9594 30 19.9476 30 19.9357V19.5439C29.9881 16.9084 28.3023 14.6706 25.9458 13.8573ZM21.5057 11.0497C21.5057 9.68441 22.6157 8.5744 23.981 8.5744C25.3463 8.5744 26.4563 9.68441 26.4563 11.0497C26.4563 12.3971 25.37 13.4953 24.0285 13.5249C24.0107 13.5249 23.9988 13.5249 23.981 13.5249C23.9632 13.5249 23.9513 13.5249 23.9335 13.5249C22.5861 13.5012 21.5057 12.403 21.5057 11.0497ZM11.5691 9.815C11.5691 7.94519 13.0886 6.4256 14.9584 6.4256C16.8283 6.4256 18.3478 7.94519 18.3478 9.815C18.3478 11.6195 16.9292 13.0975 15.1543 13.1985C15.089 13.1985 15.0237 13.1985 14.9584 13.1985C14.8932 13.1985 14.8279 13.1985 14.7626 13.1985C12.9877 13.0975 11.5691 11.6195 11.5691 9.815ZM3.51998 11.0497C3.51998 9.68441 4.63 8.5744 5.99525 8.5744C7.36051 8.5744 8.47052 9.68441 8.47052 11.0497C8.47052 12.3971 7.38425 13.4953 6.04274 13.5249C6.02493 13.5249 6.01306 13.5249 5.99525 13.5249C5.97744 13.5249 5.96557 13.5249 5.94776 13.5249C4.60625 13.5012 3.51998 12.403 3.51998 11.0497ZM7.44954 19.0038H0.961615C1.22873 16.4751 3.36565 14.4925 5.95964 14.4747C5.97151 14.4747 5.98338 14.4747 5.99525 14.4747C6.00712 14.4747 6.01899 14.4747 6.03087 14.4747C7.26553 14.4806 8.39335 14.9377 9.26593 15.6797C8.41116 16.6057 7.77602 17.7453 7.44954 19.0038ZM21.7729 21.3662C21.7729 22.5831 20.7816 23.5744 19.5647 23.5744H10.3641C9.14721 23.5744 8.15592 22.5831 8.15592 21.3662V20.9626C8.15592 17.2764 11.1001 14.261 14.7626 14.1541C14.8279 14.1601 14.8991 14.1601 14.9644 14.1601C15.0297 14.1601 15.1009 14.1601 15.1662 14.1541C18.8287 14.261 21.7729 17.2764 21.7729 20.9626V21.3662ZM22.4792 19.0038C22.1528 17.7513 21.5295 16.6294 20.6806 15.7034C21.5592 14.9436 22.6989 14.4865 23.9454 14.4747C23.9573 14.4747 23.9691 14.4747 23.981 14.4747C23.9929 14.4747 24.0047 14.4747 24.0166 14.4747C26.6106 14.4925 28.7475 16.4751 29.0146 19.0038H22.4792Z"/>
</svg>
