<svg width="57" height="57" viewBox="0 0 57 57" fill="none" xmlns="http://www.w3.org/2000/svg">
<circle cx="28.5" cy="28.5" r="28.5" fill="#E8E8E8" fill-opacity="0.5"/>
<path d="M39.9458 26.8573C40.8243 26.24 41.406 25.2131 41.406 24.0556C41.406 22.162 39.8746 20.6306 37.981 20.6306C36.0875 20.6306 34.556 22.162 34.556 24.0556C34.556 25.2131 35.1318 26.24 36.0162 26.8573C35.2624 27.1185 34.5738 27.5222 33.9921 28.0445C33.1907 27.3619 32.2469 26.8395 31.2141 26.5309C32.4666 25.7711 33.3095 24.388 33.3095 22.815C33.3095 20.4169 31.3684 18.4759 28.9703 18.4759C26.5722 18.4759 24.6312 20.4228 24.6312 22.815C24.6312 24.388 25.4681 25.7711 26.7266 26.5309C25.7056 26.8395 24.7736 27.356 23.9782 28.0267C23.3965 27.5162 22.7198 27.1185 21.9778 26.8633C22.8564 26.2459 23.4381 25.219 23.4381 24.0615C23.4381 22.168 21.9066 20.6365 20.0131 20.6365C18.1195 20.6365 16.588 22.168 16.588 24.0615C16.588 25.219 17.1638 26.2459 18.0483 26.8633C15.6917 27.6765 14 29.9143 14 32.5439V32.9357C14 32.9476 14.0119 32.9594 14.0237 32.9594H21.2833C21.2418 33.2859 21.218 33.6243 21.218 33.9626V34.3662C21.218 36.1114 22.6308 37.5241 24.3759 37.5241H33.5766C35.3217 37.5241 36.7345 36.1114 36.7345 34.3662V33.9626C36.7345 33.6243 36.7107 33.2859 36.6692 32.9594H43.9763C43.9881 32.9594 44 32.9476 44 32.9357V32.5439C43.9881 29.9084 42.3023 27.6706 39.9458 26.8573ZM35.5057 24.0497C35.5057 22.6844 36.6157 21.5744 37.981 21.5744C39.3463 21.5744 40.4563 22.6844 40.4563 24.0497C40.4563 25.3971 39.37 26.4953 38.0285 26.5249C38.0107 26.5249 37.9988 26.5249 37.981 26.5249C37.9632 26.5249 37.9513 26.5249 37.9335 26.5249C36.5861 26.5012 35.5057 25.403 35.5057 24.0497ZM25.5691 22.815C25.5691 20.9452 27.0886 19.4256 28.9584 19.4256C30.8283 19.4256 32.3478 20.9452 32.3478 22.815C32.3478 24.6195 30.9292 26.0975 29.1543 26.1985C29.089 26.1985 29.0237 26.1985 28.9584 26.1985C28.8932 26.1985 28.8279 26.1985 28.7626 26.1985C26.9877 26.0975 25.5691 24.6195 25.5691 22.815ZM17.52 24.0497C17.52 22.6844 18.63 21.5744 19.9953 21.5744C21.3605 21.5744 22.4705 22.6844 22.4705 24.0497C22.4705 25.3971 21.3843 26.4953 20.0427 26.5249C20.0249 26.5249 20.0131 26.5249 19.9953 26.5249C19.9774 26.5249 19.9656 26.5249 19.9478 26.5249C18.6063 26.5012 17.52 25.403 17.52 24.0497ZM21.4495 32.0038H14.9616C15.2287 29.4751 17.3657 27.4925 19.9596 27.4747C19.9715 27.4747 19.9834 27.4747 19.9953 27.4747C20.0071 27.4747 20.019 27.4747 20.0309 27.4747C21.2655 27.4806 22.3934 27.9377 23.2659 28.6797C22.4112 29.6057 21.776 30.7453 21.4495 32.0038ZM35.7729 34.3662C35.7729 35.5831 34.7816 36.5744 33.5647 36.5744H24.3641C23.1472 36.5744 22.1559 35.5831 22.1559 34.3662V33.9626C22.1559 30.2764 25.1001 27.261 28.7626 27.1541C28.8279 27.1601 28.8991 27.1601 28.9644 27.1601C29.0297 27.1601 29.1009 27.1601 29.1662 27.1541C32.8287 27.261 35.7729 30.2764 35.7729 33.9626V34.3662ZM36.4792 32.0038C36.1528 30.7513 35.5295 29.6294 34.6806 28.7034C35.5592 27.9436 36.6989 27.4865 37.9454 27.4747C37.9573 27.4747 37.9691 27.4747 37.981 27.4747C37.9929 27.4747 38.0047 27.4747 38.0166 27.4747C40.6106 27.4925 42.7475 29.4751 43.0146 32.0038H36.4792Z" fill="currentColor"/>
</svg>
